<?xml version="1.0" encoding="utf-8"?>
<svg viewBox="0 0 134 143" fill="none" xmlns="http://www.w3.org/2000/svg">
  <defs>
    <clipPath id="clip0_0_1">
      <rect width="3603" height="879" fill="white" transform="translate(-1243 -38)"/>
    </clipPath>
  </defs>
  <rect width="134" height="143" fill="#1E1E1E" transform="matrix(0.9999999999999999, 0, 0, 0.9999999999999999, 7.105427357601002e-15, 0)"/>
  <g id="Assets" clip-path="url(#clip0_0_1)" transform="matrix(0.9999999999999999, 0, 0, 0.9999999999999999, 7.105427357601002e-15, 0)">
    <rect width="3603" height="879" fill="white" style="paint-order: fill; stroke-linejoin: round; stroke-linecap: round;" x="-1304.246" y="-107.996"/>
    <path id="Background leaf" d="M 2 11.22 C 8.858 9.432 20.793 6.848 32.714 4.74 M 2 11.22 C 5.716 24.186 7.712 37.376 9.875 50.683 M 2 11.22 C 22.129 22.167 40.23 33.559 56.639 49.56 M 32.714 4.74 L 56.639 49.56 M 32.714 4.74 C 46.613 2.281 60.307 1.069 74.347 2.843 M 9.875 50.683 L 71.435 64.395 M 9.875 50.683 C 12.219 65.108 14.856 78.805 20.22 92.57 M 56.639 49.56 C 61.616 54.414 66.894 59.119 71.435 64.395 M 98.272 100.458 C 97.206 98.899 96.123 97.33 95.031 95.763 M 98.272 100.458 C 135.51 99.506 138.895 55.866 124.081 31.525 M 98.272 100.458 C 76.815 137.134 34.398 128.947 20.22 92.57 M 98.272 100.458 C 105.973 114.029 111.846 126.508 117.767 140.921 M 95.031 95.763 C 93.893 94.129 92.744 92.497 91.595 90.879 M 95.031 95.763 C 93.492 75 102.673 40.881 124.081 31.525 M 124.081 31.525 C 113.13 13.53 95.03 5.457 74.347 2.843 M 20.22 92.57 C 43.684 90.829 68.207 86.386 91.595 90.879 M 74.347 2.843 C 70.149 26.049 69.288 51.559 78.851 73.599 M 71.435 64.395 C 73.515 66.811 76.051 69.967 78.851 73.599 M 78.851 73.599 C 82.759 78.669 87.182 84.667 91.595 90.879" stroke="black" stroke-width="3" style="paint-order: fill; stroke-linejoin: round; stroke-linecap: round;"/>
  </g>
</svg>