<?xml version="1.0" encoding="utf-8"?>
<svg version="1.1" id="Layer_1" x="0px" y="0px" viewBox="0 0 134.085 110.501" style="enable-background:new 0 0 517.2 144.3;" xmlns="http://www.w3.org/2000/svg">
  <defs/>
  <style type="text/css">
	.st0{fill:#0E0793;}
	.st1{fill:#ECBCFA;}
	.st2{fill:#2E52FF;}
	.st3{fill:#EC6B65;}
</style>
  <g>
    <g>
      <path class="st0" d="M70.7,62.3c-0.9,0-1.7-0.8-1.7-1.7l0-10.7c0-0.5,0.2-0.9,0.5-1.2c0.3-0.3,0.8-0.5,1.2-0.5h37&#10;&#9;&#9;&#9;c0.8,0,1.4,0.8,1.4,1.7v10.7c0,0.9-0.6,1.7-1.4,1.7H70.7z"/>
      <path class="st1" d="M1.7,62.3c-0.9,0-1.7-0.8-1.7-1.7l0-10.7c0-0.5,0.2-0.9,0.5-1.2s0.8-0.5,1.2-0.5h37c0.8,0,1.4,0.8,1.4,1.7&#10;&#9;&#9;&#9;v10.7c0,0.9-0.6,1.7-1.4,1.7H1.7z"/>
    </g>
    <g>
      <path class="st2" d="M49.8,110.5c-0.9,0-1.7-0.6-1.7-1.4V72.1c0-0.9,0.8-1.7,1.7-1.7l10.7,0c0.9,0,1.7,0.8,1.7,1.7v37&#10;&#9;&#9;&#9;c0,0.8-0.8,1.4-1.7,1.4H49.8z"/>
      <path class="st3" d="M49.7,40.1c-0.9,0-1.7-0.8-1.7-1.7v-37C48,0.6,48.7,0,49.7,0h10.7c0.9,0,1.7,0.6,1.7,1.4v36.9&#10;&#9;&#9;&#9;c0,0.9-0.8,1.7-1.7,1.7L49.7,40.1z"/>
    </g>
    <path class="st0" d="M121.8,110.5c-0.9,0-1.7-0.8-1.7-1.7V2c0-0.9,0.8-1.7,1.7-1.7h10.7c0.9,0,1.7,0.8,1.7,1.7v106.8&#10;&#9;&#9;c0,0.9-0.8,1.7-1.7,1.7H121.8z"/>
  </g>
</svg>