<svg width="208" height="80" viewBox="0 0 208 80" fill="none" xmlns="http://www.w3.org/2000/svg">
<rect width="208" height="80" fill="#1E1E1E"/>
<g id="Desktop header" clip-path="url(#clip0_0_1)">
<rect width="1440" height="716" transform="translate(-609 -362)" fill="white"/>
<rect id="Rectangle 7" x="-626" y="-12" width="1473" height="114" fill="white" stroke="black" stroke-width="2"/>
<g id="Group 3">
<path id="Vector" d="M3 7.04516C6.73751 6.06661 13.2419 4.65297 19.7389 3.49914M3 7.04516C5.02496 14.1401 6.1132 21.3574 7.29182 28.6387M3 7.04516C13.97 13.0352 23.8349 19.2685 32.7778 28.0241M19.7389 3.49914L32.7778 28.0241M19.7389 3.49914C27.314 2.15384 34.7771 1.49068 42.4286 2.46152M7.29182 28.6387L40.8416 36.1415M7.29182 28.6387C8.56938 36.5315 10.0063 44.0265 12.9299 51.5583M32.7778 28.0241C35.4903 30.6799 38.3666 33.2547 40.8416 36.1415M55.4676 55.8749C54.8867 55.0215 54.2965 54.1631 53.7015 53.3055M55.4676 55.8749C75.7619 55.3541 77.6066 31.4746 69.5332 18.1554M55.4676 55.8749C43.7736 75.9432 20.6567 71.4637 12.9299 51.5583M55.4676 55.8749C59.6644 63.3007 62.7196 71.1136 65.9467 79M53.7015 53.3055C53.0809 52.4113 52.4551 51.5184 51.8288 50.6333M53.7015 53.3055C52.8624 41.9446 57.8661 23.2752 69.5332 18.1554M69.5332 18.1554C63.5648 8.30893 53.7008 3.89173 42.4286 2.46152M12.9299 51.5583C25.7177 50.6061 39.0823 48.1748 51.8288 50.6333M42.4286 2.46152C40.1406 15.1594 39.6716 29.1177 44.8832 41.1777M40.8416 36.1415C41.975 37.4637 43.3572 39.1904 44.8832 41.1777M44.8832 41.1777C47.0132 43.9519 49.4237 47.234 51.8288 50.6333" stroke="#69B1A2" stroke-width="4"/>
<g id="aloft">
<path d="M90.1445 75C87.3292 75 84.7565 74.3949 82.4266 73.1847C80.1452 71.9745 78.325 70.2076 76.9659 67.8841C75.6553 65.5121 75 62.6318 75 59.2433C75 55.9032 75.7038 53.0229 77.1115 50.6025C78.5192 48.1338 80.3879 46.2459 82.7179 44.9389C85.0963 43.6318 87.6932 42.9783 90.5085 42.9783C93.3239 42.9783 95.7023 43.6318 97.6439 44.9389C99.5855 46.1975 101.066 47.6981 102.085 49.4408L101.648 50.6025L102.304 44.2127H108.565V74.2739H101.794V66.4318L102.522 68.1745C102.328 68.6586 101.891 69.2879 101.212 70.0624C100.581 70.7885 99.7069 71.5389 98.5904 72.3134C97.5226 73.0879 96.2848 73.7414 94.8771 74.2739C93.4695 74.758 91.8919 75 90.1445 75ZM91.9647 69.4089C93.6636 69.4089 95.1926 69.0943 96.5518 68.465C97.9109 67.8357 99.0273 66.9643 99.901 65.851C100.823 64.6892 101.454 63.3096 101.794 61.7121V55.8306C101.406 54.3783 100.726 53.1197 99.7554 52.0548C98.7846 50.9414 97.6196 50.0943 96.2605 49.5134C94.9014 48.8841 93.3967 48.5694 91.7463 48.5694C89.9503 48.5694 88.3 49.0051 86.7952 49.8764C85.2905 50.7478 84.077 51.958 83.1547 53.507C82.281 55.056 81.8441 56.8713 81.8441 58.9529C81.8441 60.8892 82.3053 62.656 83.2275 64.2535C84.1498 65.851 85.3876 67.1096 86.9408 68.0293C88.4941 68.949 90.1688 69.4089 91.9647 69.4089Z" fill="black"/>
<path d="M116.279 18.0726H123.05V74.2739H116.279V18.0726Z" fill="black"/>
<path d="M128.14 58.9529C128.14 55.9516 128.844 53.2408 130.251 50.8204C131.708 48.4 133.698 46.4879 136.222 45.0841C138.746 43.6803 141.61 42.9783 144.813 42.9783C148.114 42.9783 151.002 43.6803 153.478 45.0841C155.953 46.4879 157.871 48.4 159.23 50.8204C160.589 53.2408 161.268 55.9516 161.268 58.9529C161.268 61.9541 160.589 64.6892 159.23 67.158C157.871 69.5783 155.929 71.4904 153.405 72.8943C150.929 74.2981 148.041 75 144.741 75C141.537 75 138.673 74.3465 136.149 73.0395C133.673 71.6841 131.708 69.8204 130.251 67.4484C128.844 65.028 128.14 62.1962 128.14 58.9529ZM134.911 59.0255C134.911 60.9618 135.348 62.7287 136.222 64.3261C137.096 65.8752 138.261 67.1096 139.717 68.0293C141.221 68.949 142.872 69.4089 144.668 69.4089C146.561 69.4089 148.235 68.949 149.692 68.0293C151.196 67.1096 152.361 65.8752 153.187 64.3261C154.012 62.7287 154.424 60.9618 154.424 59.0255C154.424 57.0892 154.012 55.3465 153.187 53.7975C152.361 52.2 151.196 50.9414 149.692 50.0217C148.235 49.0535 146.561 48.5694 144.668 48.5694C142.823 48.5694 141.149 49.0535 139.644 50.0217C138.188 50.9898 137.023 52.2726 136.149 53.8701C135.324 55.4191 134.911 57.1376 134.911 59.0255Z" fill="black"/>
<path d="M168.908 74.2739V50.2395H163.738V44.2127H168.908V31.5057C168.908 27.149 169.879 23.8089 171.82 21.4853C173.81 19.1618 176.723 18 180.557 18C181.577 18 182.693 18.1452 183.907 18.4357C185.169 18.7261 186.261 19.2102 187.183 19.8879L184.344 24.7529C183.907 24.3172 183.421 24.0268 182.887 23.8815C182.353 23.6879 181.819 23.5911 181.286 23.5911C179.49 23.5911 178.106 24.1962 177.135 25.4064C176.165 26.6166 175.679 28.6739 175.679 31.5783V44.2127H185.217V50.2395H175.679V74.2739H168.908Z" fill="black"/>
<path d="M192.928 30.9975H199.7V44.358H208V49.6586H199.7V74.2739H192.928V49.6586H187.395V44.358H192.928V30.9975Z" fill="black"/>
</g>
</g>
</g>
<defs>
<clipPath id="clip0_0_1">
<rect width="1440" height="716" transform="translate(-609 -362)"/>
</clipPath>
</defs>
</svg>
