<?xml version="1.0" encoding="utf-8"?>
<svg width="208" height="80" viewBox="-537.549 -440.078 207.453 81.64" fill="none" xmlns="http://www.w3.org/2000/svg">
  <defs>
    <clipPath id="clip0_0_1">
      <rect width="1440" height="716" transform="translate(-609 -362)"/>
    </clipPath>
  </defs>
  <g id="Desktop header" clip-path="url(#clip0_0_1)" transform="matrix(1, 0, 0, 1, -538.272522, -439.78183)">
    <g id="Group 3">
      <path id="Vector" d="M 3 7.045 C 3 7.045 13.242 4.653 19.739 3.499 M 3 7.045 C 5.025 14.14 6.113 21.357 7.292 28.639 M 3 7.045 C 13.97 13.035 23.835 19.269 32.778 28.024 M 19.739 3.499 L 32.778 28.024 M 19.739 3.499 C 27.314 2.154 34.777 1.491 42.429 2.462 M 7.292 28.639 L 40.842 36.142 M 7.292 28.639 C 8.569 36.532 10.006 44.027 12.93 51.558 M 32.778 28.024 C 35.49 30.68 38.367 33.255 40.842 36.142 M 55.468 55.875 C 54.887 55.022 54.297 54.163 53.702 53.306 M 55.468 55.875 C 75.762 55.354 77.607 31.475 69.533 18.155 M 55.468 55.875 C 43.774 75.943 20.657 71.464 12.93 51.558 M 55.468 55.875 C 59.664 63.301 62.72 71.114 65.947 79 M 53.702 53.306 C 53.081 52.411 52.455 51.518 51.829 50.633 M 53.702 53.306 C 52.862 41.945 57.866 23.275 69.533 18.155 M 69.533 18.155 C 63.565 8.309 53.701 3.892 42.429 2.462 M 12.93 51.558 C 25.718 50.606 39.082 48.175 51.829 50.633 M 42.429 2.462 C 40.141 15.159 39.672 29.118 44.883 41.178 M 40.842 36.142 C 41.975 37.464 43.357 39.19 44.883 41.178 M 44.883 41.178 C 47.013 43.952 49.424 47.234 51.829 50.633" stroke="#69B1A2" style="stroke-linecap: round;" stroke-width="4"/>
      <g id="aloft">
        <path d="M90.1445 75C87.3292 75 84.7565 74.3949 82.4266 73.1847C80.1452 71.9745 78.325 70.2076 76.9659 67.8841C75.6553 65.5121 75 62.6318 75 59.2433C75 55.9032 75.7038 53.0229 77.1115 50.6025C78.5192 48.1338 80.3879 46.2459 82.7179 44.9389C85.0963 43.6318 87.6932 42.9783 90.5085 42.9783C93.3239 42.9783 95.7023 43.6318 97.6439 44.9389C99.5855 46.1975 101.066 47.6981 102.085 49.4408L101.648 50.6025L102.304 44.2127H108.565V74.2739H101.794V66.4318L102.522 68.1745C102.328 68.6586 101.891 69.2879 101.212 70.0624C100.581 70.7885 99.7069 71.5389 98.5904 72.3134C97.5226 73.0879 96.2848 73.7414 94.8771 74.2739C93.4695 74.758 91.8919 75 90.1445 75ZM91.9647 69.4089C93.6636 69.4089 95.1926 69.0943 96.5518 68.465C97.9109 67.8357 99.0273 66.9643 99.901 65.851C100.823 64.6892 101.454 63.3096 101.794 61.7121V55.8306C101.406 54.3783 100.726 53.1197 99.7554 52.0548C98.7846 50.9414 97.6196 50.0943 96.2605 49.5134C94.9014 48.8841 93.3967 48.5694 91.7463 48.5694C89.9503 48.5694 88.3 49.0051 86.7952 49.8764C85.2905 50.7478 84.077 51.958 83.1547 53.507C82.281 55.056 81.8441 56.8713 81.8441 58.9529C81.8441 60.8892 82.3053 62.656 83.2275 64.2535C84.1498 65.851 85.3876 67.1096 86.9408 68.0293C88.4941 68.949 90.1688 69.4089 91.9647 69.4089Z" fill="black" style="stroke-linecap: round;"/>
        <path d="M116.279 18.0726H123.05V74.2739H116.279V18.0726Z" fill="black" style="stroke-linecap: round;"/>
        <path d="M128.14 58.9529C128.14 55.9516 128.844 53.2408 130.251 50.8204C131.708 48.4 133.698 46.4879 136.222 45.0841C138.746 43.6803 141.61 42.9783 144.813 42.9783C148.114 42.9783 151.002 43.6803 153.478 45.0841C155.953 46.4879 157.871 48.4 159.23 50.8204C160.589 53.2408 161.268 55.9516 161.268 58.9529C161.268 61.9541 160.589 64.6892 159.23 67.158C157.871 69.5783 155.929 71.4904 153.405 72.8943C150.929 74.2981 148.041 75 144.741 75C141.537 75 138.673 74.3465 136.149 73.0395C133.673 71.6841 131.708 69.8204 130.251 67.4484C128.844 65.028 128.14 62.1962 128.14 58.9529ZM134.911 59.0255C134.911 60.9618 135.348 62.7287 136.222 64.3261C137.096 65.8752 138.261 67.1096 139.717 68.0293C141.221 68.949 142.872 69.4089 144.668 69.4089C146.561 69.4089 148.235 68.949 149.692 68.0293C151.196 67.1096 152.361 65.8752 153.187 64.3261C154.012 62.7287 154.424 60.9618 154.424 59.0255C154.424 57.0892 154.012 55.3465 153.187 53.7975C152.361 52.2 151.196 50.9414 149.692 50.0217C148.235 49.0535 146.561 48.5694 144.668 48.5694C142.823 48.5694 141.149 49.0535 139.644 50.0217C138.188 50.9898 137.023 52.2726 136.149 53.8701C135.324 55.4191 134.911 57.1376 134.911 59.0255Z" fill="black" style="stroke-linecap: round;"/>
        <path d="M168.908 74.2739V50.2395H163.738V44.2127H168.908V31.5057C168.908 27.149 169.879 23.8089 171.82 21.4853C173.81 19.1618 176.723 18 180.557 18C181.577 18 182.693 18.1452 183.907 18.4357C185.169 18.7261 186.261 19.2102 187.183 19.8879L184.344 24.7529C183.907 24.3172 183.421 24.0268 182.887 23.8815C182.353 23.6879 181.819 23.5911 181.286 23.5911C179.49 23.5911 178.106 24.1962 177.135 25.4064C176.165 26.6166 175.679 28.6739 175.679 31.5783V44.2127H185.217V50.2395H175.679V74.2739H168.908Z" fill="black" style="stroke-linecap: round;"/>
        <path d="M192.928 30.9975H199.7V44.358H208V49.6586H199.7V74.2739H192.928V49.6586H187.395V44.358H192.928V30.9975Z" fill="black" style="stroke-linecap: round;"/>
      </g>
    </g>
  </g>
</svg>