<svg width="76" height="80" viewBox="0 0 76 80" fill="none" xmlns="http://www.w3.org/2000/svg">
<rect width="76" height="80" fill="#1E1E1E"/>
<g clip-path="url(#clip0_0_1)">
<rect width="1440" height="716" transform="translate(-459 -47)" fill="white"/>
<rect x="-493" y="-17" width="1473" height="114" fill="#69B1A2" stroke="black" stroke-width="2"/>
<path d="M3 7.04516C6.73751 6.06661 13.2419 4.65297 19.7389 3.49914M3 7.04516C5.02496 14.1401 6.1132 21.3574 7.29182 28.6387M3 7.04516C13.97 13.0352 23.8349 19.2685 32.7778 28.0241M19.7389 3.49914L32.7778 28.0241M19.7389 3.49914C27.314 2.15384 34.7771 1.49068 42.4286 2.46152M7.29182 28.6387L40.8416 36.1415M7.29182 28.6387C8.56938 36.5315 10.0063 44.0265 12.9299 51.5583M32.7778 28.0241C35.4903 30.6799 38.3666 33.2547 40.8416 36.1415M55.4676 55.8749C54.8867 55.0215 54.2965 54.1631 53.7015 53.3055M55.4676 55.8749C75.7619 55.3541 77.6066 31.4746 69.5332 18.1554M55.4676 55.8749C43.7736 75.9432 20.6567 71.4637 12.9299 51.5583M55.4676 55.8749C59.6644 63.3007 62.7196 71.1136 65.9467 79M53.7015 53.3055C53.0809 52.4113 52.4551 51.5184 51.8288 50.6333M53.7015 53.3055C52.8624 41.9446 57.8661 23.2752 69.5332 18.1554M69.5332 18.1554C63.5648 8.30893 53.7008 3.89173 42.4286 2.46152M12.9299 51.5583C25.7177 50.6061 39.0823 48.1748 51.8288 50.6333M42.4286 2.46152C40.1406 15.1594 39.6716 29.1177 44.8832 41.1777M40.8416 36.1415C41.975 37.4637 43.3572 39.1904 44.8832 41.1777M44.8832 41.1777C47.0132 43.9519 49.4237 47.234 51.8288 50.6333" stroke="black" stroke-width="4"/>
</g>
<defs>
<clipPath id="clip0_0_1">
<rect width="1440" height="716" fill="white" transform="translate(-459 -47)"/>
</clipPath>
</defs>
</svg>
