<svg width="345" height="227" viewBox="0 0 345 227" fill="none" xmlns="http://www.w3.org/2000/svg">
<rect width="345" height="227" fill="#1E1E1E"/>
<g clip-path="url(#clip0_0_1)">
<rect width="3603" height="879" transform="translate(-230 -58)" fill="white"/>
<path d="M6.05 206.38C6.63667 206.38 7.216 206.468 7.788 206.644C8.37467 206.805 8.90267 207.069 9.372 207.436C9.856 207.788 10.2447 208.243 10.538 208.8C10.8313 209.357 10.978 210.025 10.978 210.802C10.978 211.389 10.89 211.961 10.714 212.518C10.538 213.061 10.252 213.552 9.856 213.992C9.46 214.432 8.94667 214.784 8.316 215.048C7.68533 215.312 6.908 215.444 5.984 215.444H3.564V222H2.486V206.38H6.05ZM5.918 214.41C6.69533 214.41 7.34067 214.3 7.854 214.08C8.36733 213.86 8.77067 213.574 9.064 213.222C9.35733 212.87 9.56267 212.489 9.68 212.078C9.812 211.653 9.878 211.242 9.878 210.846C9.878 210.377 9.79 209.937 9.614 209.526C9.45267 209.115 9.21067 208.756 8.888 208.448C8.56533 208.125 8.17667 207.876 7.722 207.7C7.26733 207.509 6.76133 207.414 6.204 207.414H3.564V214.41H5.918ZM8.162 214.894L12.496 222H11.242L6.886 214.916L8.162 214.894ZM20.327 222.176C19.4323 222.176 18.6403 221.978 17.951 221.582C17.2616 221.186 16.719 220.651 16.323 219.976C15.9416 219.287 15.751 218.517 15.751 217.666C15.751 216.83 15.9563 216.067 16.367 215.378C16.7776 214.689 17.3276 214.139 18.017 213.728C18.721 213.317 19.4983 213.112 20.349 213.112C21.3756 213.112 22.2336 213.413 22.923 214.014C23.627 214.615 24.133 215.4 24.441 216.368L16.917 219.272L16.609 218.524L23.495 215.84L23.275 216.148C23.0256 215.561 22.6443 215.055 22.131 214.63C21.6323 214.205 21.0163 213.992 20.283 213.992C19.623 213.992 19.029 214.153 18.501 214.476C17.973 214.799 17.5476 215.231 17.225 215.774C16.917 216.317 16.763 216.933 16.763 217.622C16.763 218.267 16.9096 218.869 17.203 219.426C17.511 219.983 17.9363 220.431 18.479 220.768C19.0216 221.105 19.645 221.274 20.349 221.274C20.8183 221.274 21.2656 221.186 21.691 221.01C22.131 220.834 22.5196 220.607 22.857 220.328L23.385 221.076C22.9743 221.399 22.4976 221.663 21.955 221.868C21.427 222.073 20.8843 222.176 20.327 222.176ZM28.1437 205.28H29.1777V222H28.1437V205.28ZM37.4851 222.176C36.6637 222.176 35.9157 221.993 35.2411 221.626C34.5811 221.245 34.0531 220.717 33.6571 220.042C33.2757 219.367 33.0851 218.583 33.0851 217.688C33.0851 216.735 33.2904 215.921 33.7011 215.246C34.1117 214.557 34.6691 214.036 35.3731 213.684C36.0771 213.317 36.8764 213.134 37.7711 213.134C38.5337 213.134 39.2524 213.361 39.9271 213.816C40.6164 214.271 41.1077 214.843 41.4011 215.532L41.2471 215.84L41.3791 213.398H42.3031V222H41.2691V219.338L41.4891 219.734C41.3864 220.027 41.2104 220.321 40.9611 220.614C40.7117 220.893 40.4037 221.157 40.0371 221.406C39.6851 221.641 39.2891 221.831 38.8491 221.978C38.4237 222.11 37.9691 222.176 37.4851 222.176ZM37.7051 221.296C38.3504 221.296 38.9297 221.164 39.4431 220.9C39.9711 220.621 40.3964 220.24 40.7191 219.756C41.0417 219.272 41.2251 218.715 41.2691 218.084V216.852C41.1517 216.309 40.9171 215.825 40.5651 215.4C40.2277 214.975 39.8097 214.637 39.3111 214.388C38.8124 214.139 38.2697 214.014 37.6831 214.014C37.0377 214.014 36.4437 214.168 35.9011 214.476C35.3584 214.769 34.9257 215.187 34.6031 215.73C34.2804 216.273 34.1191 216.911 34.1191 217.644C34.1191 218.319 34.2804 218.935 34.6031 219.492C34.9257 220.035 35.3584 220.475 35.9011 220.812C36.4584 221.135 37.0597 221.296 37.7051 221.296ZM49.5761 217.116L52.1281 213.398H53.2061L50.0161 217.886L49.5761 217.116ZM53.3821 222H52.1501L45.7041 213.398H47.0021L53.3821 222ZM49.5541 218.304L46.9141 222H45.8141L48.9821 217.622L49.5541 218.304ZM60.3622 222.176C59.5408 222.176 58.7928 221.993 58.1182 221.626C57.4582 221.245 56.9302 220.717 56.5342 220.042C56.1528 219.367 55.9622 218.583 55.9622 217.688C55.9622 216.735 56.1675 215.921 56.5782 215.246C56.9888 214.557 57.5462 214.036 58.2502 213.684C58.9542 213.317 59.7535 213.134 60.6482 213.134C61.4108 213.134 62.1295 213.361 62.8042 213.816C63.4935 214.271 63.9848 214.843 64.2782 215.532L64.1242 215.84L64.2562 213.398H65.1802V222H64.1462V219.338L64.3662 219.734C64.2635 220.027 64.0875 220.321 63.8382 220.614C63.5888 220.893 63.2808 221.157 62.9142 221.406C62.5622 221.641 62.1662 221.831 61.7262 221.978C61.3008 222.11 60.8462 222.176 60.3622 222.176ZM60.5822 221.296C61.2275 221.296 61.8068 221.164 62.3202 220.9C62.8482 220.621 63.2735 220.24 63.5962 219.756C63.9188 219.272 64.1022 218.715 64.1462 218.084V216.852C64.0288 216.309 63.7942 215.825 63.4422 215.4C63.1048 214.975 62.6868 214.637 62.1882 214.388C61.6895 214.139 61.1468 214.014 60.5602 214.014C59.9148 214.014 59.3208 214.168 58.7782 214.476C58.2355 214.769 57.8028 215.187 57.4802 215.73C57.1575 216.273 56.9962 216.911 56.9962 217.644C56.9962 218.319 57.1575 218.935 57.4802 219.492C57.8028 220.035 58.2355 220.475 58.7782 220.812C59.3355 221.135 59.9368 221.296 60.5822 221.296ZM70.7812 209.614H71.8372V213.508H74.4992V214.344H71.8372V222H70.7812V214.344H68.9552V213.508H70.7812V209.614ZM77.9135 213.398H78.9475V222H77.9135V213.398ZM77.6935 210.23C77.6935 210.025 77.7742 209.856 77.9355 209.724C78.0968 209.577 78.2728 209.504 78.4635 209.504C78.6688 209.504 78.8448 209.577 78.9915 209.724C79.1382 209.856 79.2115 210.025 79.2115 210.23C79.2115 210.45 79.1382 210.633 78.9915 210.78C78.8448 210.912 78.6688 210.978 78.4635 210.978C78.2728 210.978 78.0968 210.905 77.9355 210.758C77.7742 210.611 77.6935 210.435 77.6935 210.23ZM82.8549 217.644C82.8549 216.808 83.0529 216.045 83.4489 215.356C83.8596 214.667 84.4096 214.124 85.0989 213.728C85.8029 213.317 86.5876 213.112 87.4529 213.112C88.3329 213.112 89.1176 213.317 89.8069 213.728C90.4963 214.124 91.0389 214.667 91.4349 215.356C91.8309 216.045 92.0289 216.808 92.0289 217.644C92.0289 218.48 91.8309 219.243 91.4349 219.932C91.0389 220.621 90.4889 221.171 89.7849 221.582C89.0956 221.978 88.3183 222.176 87.4529 222.176C86.5729 222.176 85.7883 221.985 85.0989 221.604C84.4096 221.208 83.8596 220.673 83.4489 219.998C83.0529 219.309 82.8549 218.524 82.8549 217.644ZM83.8889 217.666C83.8889 218.341 84.0429 218.957 84.3509 219.514C84.6736 220.057 85.0989 220.489 85.6269 220.812C86.1696 221.135 86.7709 221.296 87.4309 221.296C88.0909 221.296 88.6849 221.135 89.2129 220.812C89.7556 220.489 90.1809 220.057 90.4889 219.514C90.8116 218.957 90.9729 218.341 90.9729 217.666C90.9729 216.991 90.8116 216.383 90.4889 215.84C90.1809 215.283 89.7556 214.843 89.2129 214.52C88.6849 214.183 88.0909 214.014 87.4309 214.014C86.7563 214.014 86.1476 214.19 85.6049 214.542C85.0769 214.879 84.6589 215.327 84.3509 215.884C84.0429 216.441 83.8889 217.035 83.8889 217.666ZM96.8371 213.398L96.9471 216.104L96.8151 215.576C97.0645 214.828 97.5338 214.241 98.2231 213.816C98.9271 213.376 99.7045 213.156 100.555 213.156C101.362 213.156 102.014 213.398 102.513 213.882C103.012 214.351 103.268 214.967 103.283 215.73V222H102.227V216.016C102.212 215.459 102.036 214.997 101.699 214.63C101.362 214.263 100.87 214.073 100.225 214.058C99.6531 214.058 99.1178 214.197 98.6191 214.476C98.1205 214.755 97.7171 215.143 97.4091 215.642C97.1158 216.141 96.9691 216.72 96.9691 217.38V222H95.9351V213.398H96.8371ZM127.513 222C127.469 222 127.374 222 127.227 222C127.095 222 126.956 222 126.809 222C126.662 222 126.53 222 126.413 222C126.31 222 126.259 222 126.259 222L118.141 211.418C118.024 211.213 117.892 210.985 117.745 210.736C117.613 210.472 117.503 210.193 117.415 209.9C117.327 209.592 117.283 209.262 117.283 208.91C117.283 208.25 117.437 207.663 117.745 207.15C118.053 206.622 118.478 206.211 119.021 205.918C119.578 205.61 120.209 205.456 120.913 205.456C121.602 205.456 122.233 205.588 122.805 205.852C123.392 206.101 123.883 206.387 124.279 206.71L123.751 207.436C123.311 207.113 122.864 206.857 122.409 206.666C121.969 206.475 121.522 206.38 121.067 206.38C120.29 206.38 119.644 206.622 119.131 207.106C118.632 207.575 118.383 208.177 118.383 208.91C118.383 209.247 118.434 209.57 118.537 209.878C118.654 210.186 118.764 210.435 118.867 210.626C118.984 210.817 119.05 210.927 119.065 210.956L127.513 222ZM120.297 214.058C119.828 214.058 119.351 214.153 118.867 214.344C118.398 214.52 117.965 214.769 117.569 215.092C117.188 215.415 116.88 215.803 116.645 216.258C116.41 216.698 116.293 217.189 116.293 217.732C116.293 218.421 116.476 219.03 116.843 219.558C117.21 220.071 117.701 220.475 118.317 220.768C118.933 221.061 119.608 221.208 120.341 221.208C120.972 221.208 121.551 221.105 122.079 220.9C122.622 220.695 123.091 220.423 123.487 220.086C123.883 219.749 124.169 219.382 124.345 218.986L125.027 219.69C124.646 220.394 124.03 220.988 123.179 221.472C122.328 221.941 121.346 222.176 120.231 222.176C119.248 222.176 118.376 221.978 117.613 221.582C116.85 221.186 116.249 220.658 115.809 219.998C115.369 219.323 115.149 218.575 115.149 217.754C115.149 217.109 115.288 216.515 115.567 215.972C115.86 215.415 116.249 214.931 116.733 214.52C117.217 214.109 117.76 213.787 118.361 213.552C118.962 213.317 119.586 213.193 120.231 213.178L120.297 214.058ZM126.523 213.178H127.579L125.137 219.536L124.367 218.942L126.523 213.178ZM143.762 206.38C144.348 206.38 144.928 206.468 145.5 206.644C146.086 206.805 146.614 207.069 147.084 207.436C147.568 207.788 147.956 208.243 148.25 208.8C148.543 209.357 148.69 210.025 148.69 210.802C148.69 211.389 148.602 211.961 148.426 212.518C148.25 213.061 147.964 213.552 147.568 213.992C147.172 214.432 146.658 214.784 146.028 215.048C145.397 215.312 144.62 215.444 143.696 215.444H141.276V222H140.198V206.38H143.762ZM143.63 214.41C144.407 214.41 145.052 214.3 145.566 214.08C146.079 213.86 146.482 213.574 146.776 213.222C147.069 212.87 147.274 212.489 147.392 212.078C147.524 211.653 147.59 211.242 147.59 210.846C147.59 210.377 147.502 209.937 147.326 209.526C147.164 209.115 146.922 208.756 146.6 208.448C146.277 208.125 145.888 207.876 145.434 207.7C144.979 207.509 144.473 207.414 143.916 207.414H141.276V214.41H143.63ZM145.874 214.894L150.208 222H148.954L144.598 214.916L145.874 214.894ZM158.039 222.176C157.144 222.176 156.352 221.978 155.663 221.582C154.973 221.186 154.431 220.651 154.035 219.976C153.653 219.287 153.463 218.517 153.463 217.666C153.463 216.83 153.668 216.067 154.079 215.378C154.489 214.689 155.039 214.139 155.729 213.728C156.433 213.317 157.21 213.112 158.061 213.112C159.087 213.112 159.945 213.413 160.635 214.014C161.339 214.615 161.845 215.4 162.153 216.368L154.629 219.272L154.321 218.524L161.207 215.84L160.987 216.148C160.737 215.561 160.356 215.055 159.843 214.63C159.344 214.205 158.728 213.992 157.995 213.992C157.335 213.992 156.741 214.153 156.213 214.476C155.685 214.799 155.259 215.231 154.937 215.774C154.629 216.317 154.475 216.933 154.475 217.622C154.475 218.267 154.621 218.869 154.915 219.426C155.223 219.983 155.648 220.431 156.191 220.768C156.733 221.105 157.357 221.274 158.061 221.274C158.53 221.274 158.977 221.186 159.403 221.01C159.843 220.834 160.231 220.607 160.569 220.328L161.097 221.076C160.686 221.399 160.209 221.663 159.667 221.868C159.139 222.073 158.596 222.176 158.039 222.176ZM166.757 213.398L166.867 215.796L166.713 215.576C167.007 214.828 167.491 214.241 168.165 213.816C168.855 213.376 169.603 213.156 170.409 213.156C170.893 213.156 171.326 213.251 171.707 213.442C172.103 213.618 172.419 213.867 172.653 214.19C172.903 214.498 173.049 214.857 173.093 215.268L172.961 215.4C173.269 214.667 173.753 214.109 174.413 213.728C175.073 213.347 175.785 213.156 176.547 213.156C177.369 213.156 178.021 213.398 178.505 213.882C178.989 214.351 179.239 214.967 179.253 215.73V222H178.219V215.95C178.205 215.437 178.043 215.004 177.735 214.652C177.427 214.285 176.958 214.087 176.327 214.058C175.755 214.058 175.227 214.205 174.743 214.498C174.259 214.791 173.863 215.18 173.555 215.664C173.262 216.148 173.101 216.691 173.071 217.292V222H172.037V215.95C172.023 215.437 171.854 215.004 171.531 214.652C171.223 214.285 170.754 214.087 170.123 214.058C169.537 214.058 168.994 214.205 168.495 214.498C168.011 214.791 167.623 215.195 167.329 215.708C167.036 216.207 166.889 216.764 166.889 217.38V222H165.855V213.398H166.757ZM187.748 222.176C186.853 222.176 186.061 221.978 185.372 221.582C184.683 221.186 184.14 220.651 183.744 219.976C183.363 219.287 183.172 218.517 183.172 217.666C183.172 216.83 183.377 216.067 183.788 215.378C184.199 214.689 184.749 214.139 185.438 213.728C186.142 213.317 186.919 213.112 187.77 213.112C188.797 213.112 189.655 213.413 190.344 214.014C191.048 214.615 191.554 215.4 191.862 216.368L184.338 219.272L184.03 218.524L190.916 215.84L190.696 216.148C190.447 215.561 190.065 215.055 189.552 214.63C189.053 214.205 188.437 213.992 187.704 213.992C187.044 213.992 186.45 214.153 185.922 214.476C185.394 214.799 184.969 215.231 184.646 215.774C184.338 216.317 184.184 216.933 184.184 217.622C184.184 218.267 184.331 218.869 184.624 219.426C184.932 219.983 185.357 220.431 185.9 220.768C186.443 221.105 187.066 221.274 187.77 221.274C188.239 221.274 188.687 221.186 189.112 221.01C189.552 220.834 189.941 220.607 190.278 220.328L190.806 221.076C190.395 221.399 189.919 221.663 189.376 221.868C188.848 222.073 188.305 222.176 187.748 222.176ZM199.085 222.176C198.278 222.176 197.545 221.985 196.885 221.604C196.225 221.208 195.697 220.665 195.301 219.976C194.919 219.287 194.729 218.509 194.729 217.644C194.729 216.72 194.927 215.921 195.323 215.246C195.719 214.571 196.254 214.051 196.929 213.684C197.618 213.317 198.373 213.134 199.195 213.134C200.016 213.134 200.793 213.347 201.527 213.772C202.275 214.197 202.817 214.755 203.155 215.444L202.979 215.928V205.28H204.013V222H202.957V219.36L203.177 219.844C202.81 220.533 202.26 221.098 201.527 221.538C200.793 221.963 199.979 222.176 199.085 222.176ZM199.349 221.274C200.009 221.274 200.603 221.135 201.131 220.856C201.659 220.563 202.084 220.174 202.407 219.69C202.729 219.191 202.913 218.634 202.957 218.018V216.918C202.854 216.361 202.627 215.862 202.275 215.422C201.923 214.982 201.497 214.637 200.999 214.388C200.5 214.124 199.95 213.992 199.349 213.992C198.689 213.992 198.087 214.146 197.545 214.454C197.002 214.762 196.569 215.187 196.247 215.73C195.924 216.273 195.763 216.903 195.763 217.622C195.763 218.297 195.924 218.913 196.247 219.47C196.569 220.013 197.002 220.453 197.545 220.79C198.102 221.113 198.703 221.274 199.349 221.274ZM208.754 213.398H209.788V222H208.754V213.398ZM208.534 210.23C208.534 210.025 208.615 209.856 208.776 209.724C208.937 209.577 209.113 209.504 209.304 209.504C209.509 209.504 209.685 209.577 209.832 209.724C209.979 209.856 210.052 210.025 210.052 210.23C210.052 210.45 209.979 210.633 209.832 210.78C209.685 210.912 209.509 210.978 209.304 210.978C209.113 210.978 208.937 210.905 208.776 210.758C208.615 210.611 208.534 210.435 208.534 210.23ZM218.095 222.176C217.274 222.176 216.526 221.993 215.851 221.626C215.191 221.245 214.663 220.717 214.267 220.042C213.886 219.367 213.695 218.583 213.695 217.688C213.695 216.735 213.901 215.921 214.311 215.246C214.722 214.557 215.279 214.036 215.983 213.684C216.687 213.317 217.487 213.134 218.381 213.134C219.144 213.134 219.863 213.361 220.537 213.816C221.227 214.271 221.718 214.843 222.011 215.532L221.857 215.84L221.989 213.398H222.913V222H221.879V219.338L222.099 219.734C221.997 220.027 221.821 220.321 221.571 220.614C221.322 220.893 221.014 221.157 220.647 221.406C220.295 221.641 219.899 221.831 219.459 221.978C219.034 222.11 218.579 222.176 218.095 222.176ZM218.315 221.296C218.961 221.296 219.54 221.164 220.053 220.9C220.581 220.621 221.007 220.24 221.329 219.756C221.652 219.272 221.835 218.715 221.879 218.084V216.852C221.762 216.309 221.527 215.825 221.175 215.4C220.838 214.975 220.42 214.637 219.921 214.388C219.423 214.139 218.88 214.014 218.293 214.014C217.648 214.014 217.054 214.168 216.511 214.476C215.969 214.769 215.536 215.187 215.213 215.73C214.891 216.273 214.729 216.911 214.729 217.644C214.729 218.319 214.891 218.935 215.213 219.492C215.536 220.035 215.969 220.475 216.511 220.812C217.069 221.135 217.67 221.296 218.315 221.296ZM227.657 205.28H228.691V222H227.657V205.28ZM241.544 222V206.028H241.566L249.266 216.962L248.804 216.896L256.482 206.028H256.504V222H255.448V208.514L255.536 209.042L249.024 218.216H248.98L242.424 209.042L242.6 208.558V222H241.544ZM265.354 222.176C264.532 222.176 263.784 221.993 263.11 221.626C262.45 221.245 261.922 220.717 261.526 220.042C261.144 219.367 260.954 218.583 260.954 217.688C260.954 216.735 261.159 215.921 261.57 215.246C261.98 214.557 262.538 214.036 263.242 213.684C263.946 213.317 264.745 213.134 265.64 213.134C266.402 213.134 267.121 213.361 267.796 213.816C268.485 214.271 268.976 214.843 269.27 215.532L269.116 215.84L269.248 213.398H270.172V222H269.138V219.338L269.358 219.734C269.255 220.027 269.079 220.321 268.83 220.614C268.58 220.893 268.272 221.157 267.906 221.406C267.554 221.641 267.158 221.831 266.718 221.978C266.292 222.11 265.838 222.176 265.354 222.176ZM265.574 221.296C266.219 221.296 266.798 221.164 267.312 220.9C267.84 220.621 268.265 220.24 268.588 219.756C268.91 219.272 269.094 218.715 269.138 218.084V216.852C269.02 216.309 268.786 215.825 268.434 215.4C268.096 214.975 267.678 214.637 267.18 214.388C266.681 214.139 266.138 214.014 265.552 214.014C264.906 214.014 264.312 214.168 263.77 214.476C263.227 214.769 262.794 215.187 262.472 215.73C262.149 216.273 261.988 216.911 261.988 217.644C261.988 218.319 262.149 218.935 262.472 219.492C262.794 220.035 263.227 220.475 263.77 220.812C264.327 221.135 264.928 221.296 265.574 221.296ZM276.939 222.176C276.44 222.176 275.919 222.088 275.377 221.912C274.834 221.721 274.394 221.421 274.057 221.01L274.541 220.328C274.834 220.636 275.179 220.885 275.575 221.076C275.985 221.252 276.418 221.34 276.873 221.34C277.21 221.34 277.525 221.296 277.819 221.208C278.127 221.105 278.376 220.937 278.567 220.702C278.757 220.467 278.853 220.152 278.853 219.756C278.853 219.345 278.735 219.03 278.501 218.81C278.281 218.59 277.995 218.414 277.643 218.282C277.305 218.135 276.946 218.003 276.565 217.886C275.934 217.681 275.413 217.402 275.003 217.05C274.607 216.698 274.409 216.199 274.409 215.554C274.409 215.085 274.519 214.674 274.739 214.322C274.973 213.97 275.289 213.699 275.685 213.508C276.081 213.303 276.528 213.2 277.027 213.2C277.481 213.2 277.929 213.273 278.369 213.42C278.823 213.567 279.234 213.816 279.601 214.168L279.139 214.894C278.904 214.571 278.589 214.351 278.193 214.234C277.811 214.117 277.474 214.051 277.181 214.036C276.931 214.036 276.667 214.087 276.389 214.19C276.125 214.293 275.897 214.447 275.707 214.652C275.531 214.843 275.443 215.099 275.443 215.422C275.443 215.759 275.538 216.038 275.729 216.258C275.919 216.463 276.161 216.632 276.455 216.764C276.763 216.896 277.078 217.021 277.401 217.138C277.826 217.27 278.222 217.431 278.589 217.622C278.97 217.798 279.278 218.04 279.513 218.348C279.762 218.641 279.887 219.037 279.887 219.536C279.887 220.035 279.777 220.489 279.557 220.9C279.337 221.296 279.007 221.611 278.567 221.846C278.141 222.066 277.599 222.176 276.939 222.176ZM285.874 222.176C285.376 222.176 284.855 222.088 284.312 221.912C283.77 221.721 283.33 221.421 282.992 221.01L283.476 220.328C283.77 220.636 284.114 220.885 284.51 221.076C284.921 221.252 285.354 221.34 285.808 221.34C286.146 221.34 286.461 221.296 286.754 221.208C287.062 221.105 287.312 220.937 287.502 220.702C287.693 220.467 287.788 220.152 287.788 219.756C287.788 219.345 287.671 219.03 287.436 218.81C287.216 218.59 286.93 218.414 286.578 218.282C286.241 218.135 285.882 218.003 285.5 217.886C284.87 217.681 284.349 217.402 283.938 217.05C283.542 216.698 283.344 216.199 283.344 215.554C283.344 215.085 283.454 214.674 283.674 214.322C283.909 213.97 284.224 213.699 284.62 213.508C285.016 213.303 285.464 213.2 285.962 213.2C286.417 213.2 286.864 213.273 287.304 213.42C287.759 213.567 288.17 213.816 288.536 214.168L288.074 214.894C287.84 214.571 287.524 214.351 287.128 214.234C286.747 214.117 286.41 214.051 286.116 214.036C285.867 214.036 285.603 214.087 285.324 214.19C285.06 214.293 284.833 214.447 284.642 214.652C284.466 214.843 284.378 215.099 284.378 215.422C284.378 215.759 284.474 216.038 284.664 216.258C284.855 216.463 285.097 216.632 285.39 216.764C285.698 216.896 286.014 217.021 286.336 217.138C286.762 217.27 287.158 217.431 287.524 217.622C287.906 217.798 288.214 218.04 288.448 218.348C288.698 218.641 288.822 219.037 288.822 219.536C288.822 220.035 288.712 220.489 288.492 220.9C288.272 221.296 287.942 221.611 287.502 221.846C287.077 222.066 286.534 222.176 285.874 222.176ZM296.35 222.176C295.528 222.176 294.78 221.993 294.106 221.626C293.446 221.245 292.918 220.717 292.522 220.042C292.14 219.367 291.95 218.583 291.95 217.688C291.95 216.735 292.155 215.921 292.566 215.246C292.976 214.557 293.534 214.036 294.238 213.684C294.942 213.317 295.741 213.134 296.636 213.134C297.398 213.134 298.117 213.361 298.792 213.816C299.481 214.271 299.972 214.843 300.266 215.532L300.112 215.84L300.244 213.398H301.168V222H300.134V219.338L300.354 219.734C300.251 220.027 300.075 220.321 299.826 220.614C299.576 220.893 299.268 221.157 298.902 221.406C298.55 221.641 298.154 221.831 297.714 221.978C297.288 222.11 296.834 222.176 296.35 222.176ZM296.57 221.296C297.215 221.296 297.794 221.164 298.308 220.9C298.836 220.621 299.261 220.24 299.584 219.756C299.906 219.272 300.09 218.715 300.134 218.084V216.852C300.016 216.309 299.782 215.825 299.43 215.4C299.092 214.975 298.674 214.637 298.176 214.388C297.677 214.139 297.134 214.014 296.548 214.014C295.902 214.014 295.308 214.168 294.766 214.476C294.223 214.769 293.79 215.187 293.468 215.73C293.145 216.273 292.984 216.911 292.984 217.644C292.984 218.319 293.145 218.935 293.468 219.492C293.79 220.035 294.223 220.475 294.766 220.812C295.323 221.135 295.924 221.296 296.57 221.296ZM309.739 226.202C309.255 226.202 308.793 226.143 308.353 226.026C307.913 225.923 307.48 225.74 307.055 225.476C306.63 225.212 306.19 224.867 305.735 224.442L306.351 223.738C306.982 224.339 307.568 224.743 308.111 224.948C308.654 225.168 309.182 225.278 309.695 225.278C310.59 225.278 311.301 225.131 311.829 224.838C312.357 224.559 312.738 224.178 312.973 223.694C313.208 223.225 313.332 222.697 313.347 222.11L313.369 219.316L313.611 219.58C313.318 220.343 312.79 220.966 312.027 221.45C311.279 221.934 310.428 222.176 309.475 222.176C308.668 222.176 307.928 221.978 307.253 221.582C306.593 221.171 306.065 220.629 305.669 219.954C305.273 219.265 305.075 218.502 305.075 217.666C305.075 216.771 305.28 215.987 305.691 215.312C306.102 214.637 306.659 214.109 307.363 213.728C308.067 213.332 308.844 213.134 309.695 213.134C310.487 213.134 311.235 213.339 311.939 213.75C312.658 214.161 313.178 214.703 313.501 215.378L313.369 215.862L313.479 213.398H314.403V222.132C314.403 222.836 314.242 223.496 313.919 224.112C313.611 224.743 313.112 225.249 312.423 225.63C311.748 226.011 310.854 226.202 309.739 226.202ZM306.109 217.644C306.109 218.319 306.27 218.935 306.593 219.492C306.916 220.035 307.348 220.475 307.891 220.812C308.448 221.135 309.064 221.296 309.739 221.296C310.384 221.296 310.971 221.157 311.499 220.878C312.027 220.585 312.46 220.196 312.797 219.712C313.134 219.228 313.325 218.707 313.369 218.15V216.874C313.252 216.317 313.017 215.825 312.665 215.4C312.328 214.975 311.902 214.637 311.389 214.388C310.89 214.139 310.34 214.014 309.739 214.014C309.064 214.014 308.448 214.168 307.891 214.476C307.348 214.784 306.916 215.209 306.593 215.752C306.27 216.295 306.109 216.925 306.109 217.644ZM322.905 222.176C322.01 222.176 321.218 221.978 320.529 221.582C319.839 221.186 319.297 220.651 318.901 219.976C318.519 219.287 318.329 218.517 318.329 217.666C318.329 216.83 318.534 216.067 318.945 215.378C319.355 214.689 319.905 214.139 320.595 213.728C321.299 213.317 322.076 213.112 322.927 213.112C323.953 213.112 324.811 213.413 325.501 214.014C326.205 214.615 326.711 215.4 327.019 216.368L319.495 219.272L319.187 218.524L326.073 215.84L325.853 216.148C325.603 215.561 325.222 215.055 324.709 214.63C324.21 214.205 323.594 213.992 322.861 213.992C322.201 213.992 321.607 214.153 321.079 214.476C320.551 214.799 320.125 215.231 319.803 215.774C319.495 216.317 319.341 216.933 319.341 217.622C319.341 218.267 319.487 218.869 319.781 219.426C320.089 219.983 320.514 220.431 321.057 220.768C321.599 221.105 322.223 221.274 322.927 221.274C323.396 221.274 323.843 221.186 324.269 221.01C324.709 220.834 325.097 220.607 325.435 220.328L325.963 221.076C325.552 221.399 325.075 221.663 324.533 221.868C324.005 222.073 323.462 222.176 322.905 222.176Z" fill="black"/>
<path d="M75.5 11.5C82.3579 9.71166 94.2927 7.12818 106.214 5.01952M75.5 11.5C79.2156 24.4662 81.2124 37.656 83.375 50.963M75.5 11.5C95.6286 22.4469 113.73 33.8386 130.139 49.8398M106.214 5.01952L130.139 49.8398M106.214 5.01952C120.113 2.56093 133.807 1.34899 147.847 3.12322M83.375 50.963L144.935 64.6747M83.375 50.963C85.7192 65.3873 88.3558 79.0847 93.7203 92.8493M130.139 49.8398C135.116 54.6933 140.394 59.3989 144.935 64.6747M171.772 100.738C170.706 99.1784 169.623 97.6096 168.531 96.0424M171.772 100.738C209.01 99.7862 212.395 56.1456 197.581 31.8043M171.772 100.738C150.315 137.414 107.898 129.227 93.7203 92.8493M171.772 100.738C179.473 114.309 185.079 128.587 191 143M168.531 96.0424C167.393 94.4083 166.244 92.7764 165.095 91.1588M168.531 96.0424C166.992 75.28 176.173 41.1609 197.581 31.8043M197.581 31.8043C186.63 13.8096 168.53 5.73699 147.847 3.12322M93.7203 92.8493C117.184 91.1092 141.707 86.6659 165.095 91.1588M147.847 3.12322C143.649 26.329 142.788 51.8383 152.351 73.8784M144.935 64.6747C147.015 67.0909 149.551 70.2465 152.351 73.8784M152.351 73.8784C156.259 78.9483 160.682 84.9465 165.095 91.1588" stroke="#69B1A2" stroke-width="4"/>
<path d="M86.83 174.1C82.5767 174.1 78.69 173.183 75.17 171.35C71.7233 169.517 68.9733 166.84 66.92 163.32C64.94 159.727 63.95 155.363 63.95 150.23C63.95 145.17 65.0133 140.807 67.14 137.14C69.2667 133.4 72.09 130.54 75.61 128.56C79.2033 126.58 83.1267 125.59 87.38 125.59C91.6333 125.59 95.2267 126.58 98.16 128.56C101.093 130.467 103.33 132.74 104.87 135.38L104.21 137.14L105.2 127.46H114.66V173H104.43V161.12L105.53 163.76C105.237 164.493 104.577 165.447 103.55 166.62C102.597 167.72 101.277 168.857 99.59 170.03C97.9767 171.203 96.1067 172.193 93.98 173C91.8533 173.733 89.47 174.1 86.83 174.1ZM89.58 165.63C92.1467 165.63 94.4567 165.153 96.51 164.2C98.5633 163.247 100.25 161.927 101.57 160.24C102.963 158.48 103.917 156.39 104.43 153.97V145.06C103.843 142.86 102.817 140.953 101.35 139.34C99.8833 137.653 98.1233 136.37 96.07 135.49C94.0167 134.537 91.7433 134.06 89.25 134.06C86.5367 134.06 84.0433 134.72 81.77 136.04C79.4967 137.36 77.6633 139.193 76.27 141.54C74.95 143.887 74.29 146.637 74.29 149.79C74.29 152.723 74.9867 155.4 76.38 157.82C77.7733 160.24 79.6433 162.147 81.99 163.54C84.3367 164.933 86.8667 165.63 89.58 165.63ZM126.313 87.86H136.543V173H126.313V87.86ZM144.233 149.79C144.233 145.243 145.296 141.137 147.423 137.47C149.623 133.803 152.629 130.907 156.443 128.78C160.256 126.653 164.583 125.59 169.423 125.59C174.409 125.59 178.773 126.653 182.513 128.78C186.253 130.907 189.149 133.803 191.203 137.47C193.256 141.137 194.283 145.243 194.283 149.79C194.283 154.337 193.256 158.48 191.203 162.22C189.149 165.887 186.216 168.783 182.403 170.91C178.663 173.037 174.299 174.1 169.313 174.1C164.473 174.1 160.146 173.11 156.333 171.13C152.593 169.077 149.623 166.253 147.423 162.66C145.296 158.993 144.233 154.703 144.233 149.79ZM154.463 149.9C154.463 152.833 155.123 155.51 156.443 157.93C157.763 160.277 159.523 162.147 161.723 163.54C163.996 164.933 166.489 165.63 169.203 165.63C172.063 165.63 174.593 164.933 176.793 163.54C179.066 162.147 180.826 160.277 182.073 157.93C183.319 155.51 183.943 152.833 183.943 149.9C183.943 146.967 183.319 144.327 182.073 141.98C180.826 139.56 179.066 137.653 176.793 136.26C174.593 134.793 172.063 134.06 169.203 134.06C166.416 134.06 163.886 134.793 161.613 136.26C159.413 137.727 157.653 139.67 156.333 142.09C155.086 144.437 154.463 147.04 154.463 149.9ZM205.824 173V136.59H198.014V127.46H205.824V108.21C205.824 101.61 207.291 96.55 210.224 93.03C213.231 89.51 217.631 87.75 223.424 87.75C224.964 87.75 226.651 87.97 228.484 88.41C230.391 88.85 232.041 89.5833 233.434 90.61L229.144 97.98C228.484 97.32 227.751 96.88 226.944 96.66C226.138 96.3667 225.331 96.22 224.524 96.22C221.811 96.22 219.721 97.1367 218.254 98.97C216.788 100.803 216.054 103.92 216.054 108.32V127.46H230.464V136.59H216.054V173H205.824ZM242.114 107.44H252.344V127.68H264.884V135.71H252.344V173H242.114V135.71H233.754V127.68H242.114V107.44Z" fill="black"/>
</g>
<defs>
<clipPath id="clip0_0_1">
<rect width="3603" height="879" fill="white" transform="translate(-230 -58)"/>
</clipPath>
</defs>
</svg>
