<svg width="341" height="227" viewBox="0 0 341 227" fill="none" xmlns="http://www.w3.org/2000/svg">
<g id="Group 1">
<path id="Relaxation &#38; Remedial Massage" d="M12.5862 206.38C13.1729 206.38 13.7522 206.468 14.3242 206.644C14.9109 206.805 15.4389 207.069 15.9082 207.436C16.3922 207.788 16.7809 208.243 17.0742 208.8C17.3676 209.357 17.5142 210.025 17.5142 210.802C17.5142 211.389 17.4262 211.961 17.2502 212.518C17.0742 213.061 16.7882 213.552 16.3922 213.992C15.9962 214.432 15.4829 214.784 14.8522 215.048C14.2216 215.312 13.4442 215.444 12.5202 215.444H10.1002V222H9.02224V206.38H12.5862ZM12.4542 214.41C13.2316 214.41 13.8769 214.3 14.3902 214.08C14.9036 213.86 15.3069 213.574 15.6002 213.222C15.8936 212.87 16.0989 212.489 16.2162 212.078C16.3482 211.653 16.4142 211.242 16.4142 210.846C16.4142 210.377 16.3262 209.937 16.1502 209.526C15.9889 209.115 15.7469 208.756 15.4242 208.448C15.1016 208.125 14.7129 207.876 14.2582 207.7C13.8036 207.509 13.2976 207.414 12.7402 207.414H10.1002V214.41H12.4542ZM14.6982 214.894L19.0322 222H17.7782L13.4222 214.916L14.6982 214.894ZM26.8632 222.176C25.9685 222.176 25.1765 221.978 24.4872 221.582C23.7979 221.186 23.2552 220.651 22.8592 219.976C22.4779 219.287 22.2872 218.517 22.2872 217.666C22.2872 216.83 22.4925 216.067 22.9032 215.378C23.3139 214.689 23.8639 214.139 24.5532 213.728C25.2572 213.317 26.0345 213.112 26.8852 213.112C27.9119 213.112 28.7699 213.413 29.4592 214.014C30.1632 214.615 30.6692 215.4 30.9772 216.368L23.4532 219.272L23.1452 218.524L30.0312 215.84L29.8112 216.148C29.5619 215.561 29.1805 215.055 28.6672 214.63C28.1685 214.205 27.5525 213.992 26.8192 213.992C26.1592 213.992 25.5652 214.153 25.0372 214.476C24.5092 214.799 24.0839 215.231 23.7612 215.774C23.4532 216.317 23.2992 216.933 23.2992 217.622C23.2992 218.267 23.4459 218.869 23.7392 219.426C24.0472 219.983 24.4725 220.431 25.0152 220.768C25.5579 221.105 26.1812 221.274 26.8852 221.274C27.3545 221.274 27.8019 221.186 28.2272 221.01C28.6672 220.834 29.0559 220.607 29.3932 220.328L29.9212 221.076C29.5105 221.399 29.0339 221.663 28.4912 221.868C27.9632 222.073 27.4205 222.176 26.8632 222.176ZM34.6799 205.28H35.7139V222H34.6799V205.28ZM44.0213 222.176C43.2 222.176 42.452 221.993 41.7773 221.626C41.1173 221.245 40.5893 220.717 40.1933 220.042C39.812 219.367 39.6213 218.583 39.6213 217.688C39.6213 216.735 39.8267 215.921 40.2373 215.246C40.648 214.557 41.2053 214.036 41.9093 213.684C42.6133 213.317 43.4127 213.134 44.3073 213.134C45.07 213.134 45.7887 213.361 46.4633 213.816C47.1527 214.271 47.644 214.843 47.9373 215.532L47.7833 215.84L47.9153 213.398H48.8393V222H47.8053V219.338L48.0253 219.734C47.9227 220.027 47.7467 220.321 47.4973 220.614C47.248 220.893 46.94 221.157 46.5733 221.406C46.2213 221.641 45.8253 221.831 45.3853 221.978C44.96 222.11 44.5053 222.176 44.0213 222.176ZM44.2413 221.296C44.8867 221.296 45.466 221.164 45.9793 220.9C46.5073 220.621 46.9327 220.24 47.2553 219.756C47.578 219.272 47.7613 218.715 47.8053 218.084V216.852C47.688 216.309 47.4533 215.825 47.1013 215.4C46.764 214.975 46.346 214.637 45.8473 214.388C45.3487 214.139 44.806 214.014 44.2193 214.014C43.574 214.014 42.98 214.168 42.4373 214.476C41.8947 214.769 41.462 215.187 41.1393 215.73C40.8167 216.273 40.6553 216.911 40.6553 217.644C40.6553 218.319 40.8167 218.935 41.1393 219.492C41.462 220.035 41.8947 220.475 42.4373 220.812C42.9947 221.135 43.596 221.296 44.2413 221.296ZM56.1124 217.116L58.6644 213.398H59.7424L56.5524 217.886L56.1124 217.116ZM59.9184 222H58.6864L52.2404 213.398H53.5384L59.9184 222ZM56.0904 218.304L53.4504 222H52.3504L55.5184 217.622L56.0904 218.304ZM66.8984 222.176C66.0771 222.176 65.3291 221.993 64.6544 221.626C63.9944 221.245 63.4664 220.717 63.0704 220.042C62.6891 219.367 62.4984 218.583 62.4984 217.688C62.4984 216.735 62.7037 215.921 63.1144 215.246C63.5251 214.557 64.0824 214.036 64.7864 213.684C65.4904 213.317 66.2897 213.134 67.1844 213.134C67.9471 213.134 68.6657 213.361 69.3404 213.816C70.0297 214.271 70.5211 214.843 70.8144 215.532L70.6604 215.84L70.7924 213.398H71.7164V222H70.6824V219.338L70.9024 219.734C70.7997 220.027 70.6237 220.321 70.3744 220.614C70.1251 220.893 69.8171 221.157 69.4504 221.406C69.0984 221.641 68.7024 221.831 68.2624 221.978C67.8371 222.11 67.3824 222.176 66.8984 222.176ZM67.1184 221.296C67.7637 221.296 68.3431 221.164 68.8564 220.9C69.3844 220.621 69.8097 220.24 70.1324 219.756C70.4551 219.272 70.6384 218.715 70.6824 218.084V216.852C70.5651 216.309 70.3304 215.825 69.9784 215.4C69.6411 214.975 69.2231 214.637 68.7244 214.388C68.2257 214.139 67.6831 214.014 67.0964 214.014C66.4511 214.014 65.8571 214.168 65.3144 214.476C64.7717 214.769 64.3391 215.187 64.0164 215.73C63.6937 216.273 63.5324 216.911 63.5324 217.644C63.5324 218.319 63.6937 218.935 64.0164 219.492C64.3391 220.035 64.7717 220.475 65.3144 220.812C65.8717 221.135 66.4731 221.296 67.1184 221.296ZM77.3175 209.614H78.3735V213.508H81.0355V214.344H78.3735V222H77.3175V214.344H75.4915V213.508H77.3175V209.614ZM84.4498 213.398H85.4838V222H84.4498V213.398ZM84.2298 210.23C84.2298 210.025 84.3104 209.856 84.4718 209.724C84.6331 209.577 84.8091 209.504 84.9998 209.504C85.2051 209.504 85.3811 209.577 85.5278 209.724C85.6744 209.856 85.7478 210.025 85.7478 210.23C85.7478 210.45 85.6744 210.633 85.5278 210.78C85.3811 210.912 85.2051 210.978 84.9998 210.978C84.8091 210.978 84.6331 210.905 84.4718 210.758C84.3104 210.611 84.2298 210.435 84.2298 210.23ZM89.3912 217.644C89.3912 216.808 89.5892 216.045 89.9852 215.356C90.3958 214.667 90.9458 214.124 91.6352 213.728C92.3392 213.317 93.1238 213.112 93.9892 213.112C94.8692 213.112 95.6538 213.317 96.3432 213.728C97.0325 214.124 97.5752 214.667 97.9712 215.356C98.3672 216.045 98.5652 216.808 98.5652 217.644C98.5652 218.48 98.3672 219.243 97.9712 219.932C97.5752 220.621 97.0252 221.171 96.3212 221.582C95.6318 221.978 94.8545 222.176 93.9892 222.176C93.1092 222.176 92.3245 221.985 91.6352 221.604C90.9458 221.208 90.3958 220.673 89.9852 219.998C89.5892 219.309 89.3912 218.524 89.3912 217.644ZM90.4252 217.666C90.4252 218.341 90.5792 218.957 90.8872 219.514C91.2098 220.057 91.6352 220.489 92.1632 220.812C92.7058 221.135 93.3072 221.296 93.9672 221.296C94.6272 221.296 95.2212 221.135 95.7492 220.812C96.2918 220.489 96.7172 220.057 97.0252 219.514C97.3478 218.957 97.5092 218.341 97.5092 217.666C97.5092 216.991 97.3478 216.383 97.0252 215.84C96.7172 215.283 96.2918 214.843 95.7492 214.52C95.2212 214.183 94.6272 214.014 93.9672 214.014C93.2925 214.014 92.6838 214.19 92.1412 214.542C91.6132 214.879 91.1952 215.327 90.8872 215.884C90.5792 216.441 90.4252 217.035 90.4252 217.666ZM103.373 213.398L103.483 216.104L103.351 215.576C103.601 214.828 104.07 214.241 104.759 213.816C105.463 213.376 106.241 213.156 107.091 213.156C107.898 213.156 108.551 213.398 109.049 213.882C109.548 214.351 109.805 214.967 109.819 215.73V222H108.763V216.016C108.749 215.459 108.573 214.997 108.235 214.63C107.898 214.263 107.407 214.073 106.761 214.058C106.189 214.058 105.654 214.197 105.155 214.476C104.657 214.755 104.253 215.143 103.945 215.642C103.652 216.141 103.505 216.72 103.505 217.38V222H102.471V213.398H103.373ZM134.049 222C134.005 222 133.91 222 133.763 222C133.631 222 133.492 222 133.345 222C133.199 222 133.067 222 132.949 222C132.847 222 132.795 222 132.795 222L124.677 211.418C124.56 211.213 124.428 210.985 124.281 210.736C124.149 210.472 124.039 210.193 123.951 209.9C123.863 209.592 123.819 209.262 123.819 208.91C123.819 208.25 123.973 207.663 124.281 207.15C124.589 206.622 125.015 206.211 125.557 205.918C126.115 205.61 126.745 205.456 127.449 205.456C128.139 205.456 128.769 205.588 129.341 205.852C129.928 206.101 130.419 206.387 130.815 206.71L130.287 207.436C129.847 207.113 129.4 206.857 128.945 206.666C128.505 206.475 128.058 206.38 127.603 206.38C126.826 206.38 126.181 206.622 125.667 207.106C125.169 207.575 124.919 208.177 124.919 208.91C124.919 209.247 124.971 209.57 125.073 209.878C125.191 210.186 125.301 210.435 125.403 210.626C125.521 210.817 125.587 210.927 125.601 210.956L134.049 222ZM126.833 214.058C126.364 214.058 125.887 214.153 125.403 214.344C124.934 214.52 124.501 214.769 124.105 215.092C123.724 215.415 123.416 215.803 123.181 216.258C122.947 216.698 122.829 217.189 122.829 217.732C122.829 218.421 123.013 219.03 123.379 219.558C123.746 220.071 124.237 220.475 124.853 220.768C125.469 221.061 126.144 221.208 126.877 221.208C127.508 221.208 128.087 221.105 128.615 220.9C129.158 220.695 129.627 220.423 130.023 220.086C130.419 219.749 130.705 219.382 130.881 218.986L131.563 219.69C131.182 220.394 130.566 220.988 129.715 221.472C128.865 221.941 127.882 222.176 126.767 222.176C125.785 222.176 124.912 221.978 124.149 221.582C123.387 221.186 122.785 220.658 122.345 219.998C121.905 219.323 121.685 218.575 121.685 217.754C121.685 217.109 121.825 216.515 122.103 215.972C122.397 215.415 122.785 214.931 123.269 214.52C123.753 214.109 124.296 213.787 124.897 213.552C125.499 213.317 126.122 213.193 126.767 213.178L126.833 214.058ZM133.059 213.178H134.115L131.673 219.536L130.903 218.942L133.059 213.178ZM150.298 206.38C150.885 206.38 151.464 206.468 152.036 206.644C152.623 206.805 153.151 207.069 153.62 207.436C154.104 207.788 154.493 208.243 154.786 208.8C155.079 209.357 155.226 210.025 155.226 210.802C155.226 211.389 155.138 211.961 154.962 212.518C154.786 213.061 154.5 213.552 154.104 213.992C153.708 214.432 153.195 214.784 152.564 215.048C151.933 215.312 151.156 215.444 150.232 215.444H147.812V222H146.734V206.38H150.298ZM150.166 214.41C150.943 214.41 151.589 214.3 152.102 214.08C152.615 213.86 153.019 213.574 153.312 213.222C153.605 212.87 153.811 212.489 153.928 212.078C154.06 211.653 154.126 211.242 154.126 210.846C154.126 210.377 154.038 209.937 153.862 209.526C153.701 209.115 153.459 208.756 153.136 208.448C152.813 208.125 152.425 207.876 151.97 207.7C151.515 207.509 151.009 207.414 150.452 207.414H147.812V214.41H150.166ZM152.41 214.894L156.744 222H155.49L151.134 214.916L152.41 214.894ZM164.575 222.176C163.68 222.176 162.888 221.978 162.199 221.582C161.51 221.186 160.967 220.651 160.571 219.976C160.19 219.287 159.999 218.517 159.999 217.666C159.999 216.83 160.204 216.067 160.615 215.378C161.026 214.689 161.576 214.139 162.265 213.728C162.969 213.317 163.746 213.112 164.597 213.112C165.624 213.112 166.482 213.413 167.171 214.014C167.875 214.615 168.381 215.4 168.689 216.368L161.165 219.272L160.857 218.524L167.743 215.84L167.523 216.148C167.274 215.561 166.892 215.055 166.379 214.63C165.88 214.205 165.264 213.992 164.531 213.992C163.871 213.992 163.277 214.153 162.749 214.476C162.221 214.799 161.796 215.231 161.473 215.774C161.165 216.317 161.011 216.933 161.011 217.622C161.011 218.267 161.158 218.869 161.451 219.426C161.759 219.983 162.184 220.431 162.727 220.768C163.27 221.105 163.893 221.274 164.597 221.274C165.066 221.274 165.514 221.186 165.939 221.01C166.379 220.834 166.768 220.607 167.105 220.328L167.633 221.076C167.222 221.399 166.746 221.663 166.203 221.868C165.675 222.073 165.132 222.176 164.575 222.176ZM173.294 213.398L173.404 215.796L173.25 215.576C173.543 214.828 174.027 214.241 174.702 213.816C175.391 213.376 176.139 213.156 176.946 213.156C177.43 213.156 177.862 213.251 178.244 213.442C178.64 213.618 178.955 213.867 179.19 214.19C179.439 214.498 179.586 214.857 179.63 215.268L179.498 215.4C179.806 214.667 180.29 214.109 180.95 213.728C181.61 213.347 182.321 213.156 183.084 213.156C183.905 213.156 184.558 213.398 185.042 213.882C185.526 214.351 185.775 214.967 185.79 215.73V222H184.756V215.95C184.741 215.437 184.58 215.004 184.272 214.652C183.964 214.285 183.494 214.087 182.864 214.058C182.292 214.058 181.764 214.205 181.28 214.498C180.796 214.791 180.4 215.18 180.092 215.664C179.798 216.148 179.637 216.691 179.608 217.292V222H178.574V215.95C178.559 215.437 178.39 215.004 178.068 214.652C177.76 214.285 177.29 214.087 176.66 214.058C176.073 214.058 175.53 214.205 175.032 214.498C174.548 214.791 174.159 215.195 173.866 215.708C173.572 216.207 173.426 216.764 173.426 217.38V222H172.392V213.398H173.294ZM194.284 222.176C193.389 222.176 192.597 221.978 191.908 221.582C191.219 221.186 190.676 220.651 190.28 219.976C189.899 219.287 189.708 218.517 189.708 217.666C189.708 216.83 189.913 216.067 190.324 215.378C190.735 214.689 191.285 214.139 191.974 213.728C192.678 213.317 193.455 213.112 194.306 213.112C195.333 213.112 196.191 213.413 196.88 214.014C197.584 214.615 198.09 215.4 198.398 216.368L190.874 219.272L190.566 218.524L197.452 215.84L197.232 216.148C196.983 215.561 196.601 215.055 196.088 214.63C195.589 214.205 194.973 213.992 194.24 213.992C193.58 213.992 192.986 214.153 192.458 214.476C191.93 214.799 191.505 215.231 191.182 215.774C190.874 216.317 190.72 216.933 190.72 217.622C190.72 218.267 190.867 218.869 191.16 219.426C191.468 219.983 191.893 220.431 192.436 220.768C192.979 221.105 193.602 221.274 194.306 221.274C194.775 221.274 195.223 221.186 195.648 221.01C196.088 220.834 196.477 220.607 196.814 220.328L197.342 221.076C196.931 221.399 196.455 221.663 195.912 221.868C195.384 222.073 194.841 222.176 194.284 222.176ZM205.621 222.176C204.814 222.176 204.081 221.985 203.421 221.604C202.761 221.208 202.233 220.665 201.837 219.976C201.455 219.287 201.265 218.509 201.265 217.644C201.265 216.72 201.463 215.921 201.859 215.246C202.255 214.571 202.79 214.051 203.465 213.684C204.154 213.317 204.909 213.134 205.731 213.134C206.552 213.134 207.329 213.347 208.063 213.772C208.811 214.197 209.353 214.755 209.691 215.444L209.515 215.928V205.28H210.549V222H209.493V219.36L209.713 219.844C209.346 220.533 208.796 221.098 208.063 221.538C207.329 221.963 206.515 222.176 205.621 222.176ZM205.885 221.274C206.545 221.274 207.139 221.135 207.667 220.856C208.195 220.563 208.62 220.174 208.943 219.69C209.265 219.191 209.449 218.634 209.493 218.018V216.918C209.39 216.361 209.163 215.862 208.811 215.422C208.459 214.982 208.033 214.637 207.535 214.388C207.036 214.124 206.486 213.992 205.885 213.992C205.225 213.992 204.623 214.146 204.081 214.454C203.538 214.762 203.105 215.187 202.783 215.73C202.46 216.273 202.299 216.903 202.299 217.622C202.299 218.297 202.46 218.913 202.783 219.47C203.105 220.013 203.538 220.453 204.081 220.79C204.638 221.113 205.239 221.274 205.885 221.274ZM215.29 213.398H216.324V222H215.29V213.398ZM215.07 210.23C215.07 210.025 215.151 209.856 215.312 209.724C215.474 209.577 215.65 209.504 215.84 209.504C216.046 209.504 216.222 209.577 216.368 209.724C216.515 209.856 216.588 210.025 216.588 210.23C216.588 210.45 216.515 210.633 216.368 210.78C216.222 210.912 216.046 210.978 215.84 210.978C215.65 210.978 215.474 210.905 215.312 210.758C215.151 210.611 215.07 210.435 215.07 210.23ZM224.632 222.176C223.81 222.176 223.062 221.993 222.388 221.626C221.728 221.245 221.2 220.717 220.804 220.042C220.422 219.367 220.232 218.583 220.232 217.688C220.232 216.735 220.437 215.921 220.848 215.246C221.258 214.557 221.816 214.036 222.52 213.684C223.224 213.317 224.023 213.134 224.918 213.134C225.68 213.134 226.399 213.361 227.074 213.816C227.763 214.271 228.254 214.843 228.548 215.532L228.394 215.84L228.526 213.398H229.45V222H228.416V219.338L228.636 219.734C228.533 220.027 228.357 220.321 228.108 220.614C227.858 220.893 227.55 221.157 227.184 221.406C226.832 221.641 226.436 221.831 225.996 221.978C225.57 222.11 225.116 222.176 224.632 222.176ZM224.852 221.296C225.497 221.296 226.076 221.164 226.59 220.9C227.118 220.621 227.543 220.24 227.866 219.756C228.188 219.272 228.372 218.715 228.416 218.084V216.852C228.298 216.309 228.064 215.825 227.712 215.4C227.374 214.975 226.956 214.637 226.458 214.388C225.959 214.139 225.416 214.014 224.83 214.014C224.184 214.014 223.59 214.168 223.048 214.476C222.505 214.769 222.072 215.187 221.75 215.73C221.427 216.273 221.266 216.911 221.266 217.644C221.266 218.319 221.427 218.935 221.75 219.492C222.072 220.035 222.505 220.475 223.048 220.812C223.605 221.135 224.206 221.296 224.852 221.296ZM234.193 205.28H235.227V222H234.193V205.28ZM248.08 222V206.028H248.102L255.802 216.962L255.34 216.896L263.018 206.028H263.04V222H261.984V208.514L262.072 209.042L255.56 218.216H255.516L248.96 209.042L249.136 208.558V222H248.08ZM271.89 222.176C271.068 222.176 270.32 221.993 269.646 221.626C268.986 221.245 268.458 220.717 268.062 220.042C267.68 219.367 267.49 218.583 267.49 217.688C267.49 216.735 267.695 215.921 268.106 215.246C268.516 214.557 269.074 214.036 269.778 213.684C270.482 213.317 271.281 213.134 272.176 213.134C272.938 213.134 273.657 213.361 274.332 213.816C275.021 214.271 275.512 214.843 275.806 215.532L275.652 215.84L275.784 213.398H276.708V222H275.674V219.338L275.894 219.734C275.791 220.027 275.615 220.321 275.366 220.614C275.116 220.893 274.808 221.157 274.442 221.406C274.09 221.641 273.694 221.831 273.254 221.978C272.828 222.11 272.374 222.176 271.89 222.176ZM272.11 221.296C272.755 221.296 273.334 221.164 273.848 220.9C274.376 220.621 274.801 220.24 275.124 219.756C275.446 219.272 275.63 218.715 275.674 218.084V216.852C275.556 216.309 275.322 215.825 274.97 215.4C274.632 214.975 274.214 214.637 273.716 214.388C273.217 214.139 272.674 214.014 272.088 214.014C271.442 214.014 270.848 214.168 270.306 214.476C269.763 214.769 269.33 215.187 269.008 215.73C268.685 216.273 268.524 216.911 268.524 217.644C268.524 218.319 268.685 218.935 269.008 219.492C269.33 220.035 269.763 220.475 270.306 220.812C270.863 221.135 271.464 221.296 272.11 221.296ZM283.475 222.176C282.976 222.176 282.455 222.088 281.913 221.912C281.37 221.721 280.93 221.421 280.593 221.01L281.077 220.328C281.37 220.636 281.715 220.885 282.111 221.076C282.521 221.252 282.954 221.34 283.409 221.34C283.746 221.34 284.061 221.296 284.355 221.208C284.663 221.105 284.912 220.937 285.103 220.702C285.293 220.467 285.389 220.152 285.389 219.756C285.389 219.345 285.271 219.03 285.037 218.81C284.817 218.59 284.531 218.414 284.179 218.282C283.841 218.135 283.482 218.003 283.101 217.886C282.47 217.681 281.949 217.402 281.539 217.05C281.143 216.698 280.945 216.199 280.945 215.554C280.945 215.085 281.055 214.674 281.275 214.322C281.509 213.97 281.825 213.699 282.221 213.508C282.617 213.303 283.064 213.2 283.563 213.2C284.017 213.2 284.465 213.273 284.905 213.42C285.359 213.567 285.77 213.816 286.137 214.168L285.675 214.894C285.44 214.571 285.125 214.351 284.729 214.234C284.347 214.117 284.01 214.051 283.717 214.036C283.467 214.036 283.203 214.087 282.925 214.19C282.661 214.293 282.433 214.447 282.243 214.652C282.067 214.843 281.979 215.099 281.979 215.422C281.979 215.759 282.074 216.038 282.265 216.258C282.455 216.463 282.697 216.632 282.991 216.764C283.299 216.896 283.614 217.021 283.937 217.138C284.362 217.27 284.758 217.431 285.125 217.622C285.506 217.798 285.814 218.04 286.049 218.348C286.298 218.641 286.423 219.037 286.423 219.536C286.423 220.035 286.313 220.489 286.093 220.9C285.873 221.296 285.543 221.611 285.103 221.846C284.677 222.066 284.135 222.176 283.475 222.176ZM292.41 222.176C291.912 222.176 291.391 222.088 290.848 221.912C290.306 221.721 289.866 221.421 289.528 221.01L290.012 220.328C290.306 220.636 290.65 220.885 291.046 221.076C291.457 221.252 291.89 221.34 292.344 221.34C292.682 221.34 292.997 221.296 293.29 221.208C293.598 221.105 293.848 220.937 294.038 220.702C294.229 220.467 294.324 220.152 294.324 219.756C294.324 219.345 294.207 219.03 293.972 218.81C293.752 218.59 293.466 218.414 293.114 218.282C292.777 218.135 292.418 218.003 292.036 217.886C291.406 217.681 290.885 217.402 290.474 217.05C290.078 216.698 289.88 216.199 289.88 215.554C289.88 215.085 289.99 214.674 290.21 214.322C290.445 213.97 290.76 213.699 291.156 213.508C291.552 213.303 292 213.2 292.498 213.2C292.953 213.2 293.4 213.273 293.84 213.42C294.295 213.567 294.706 213.816 295.072 214.168L294.61 214.894C294.376 214.571 294.06 214.351 293.664 214.234C293.283 214.117 292.946 214.051 292.652 214.036C292.403 214.036 292.139 214.087 291.86 214.19C291.596 214.293 291.369 214.447 291.178 214.652C291.002 214.843 290.914 215.099 290.914 215.422C290.914 215.759 291.01 216.038 291.2 216.258C291.391 216.463 291.633 216.632 291.926 216.764C292.234 216.896 292.55 217.021 292.872 217.138C293.298 217.27 293.694 217.431 294.06 217.622C294.442 217.798 294.75 218.04 294.984 218.348C295.234 218.641 295.358 219.037 295.358 219.536C295.358 220.035 295.248 220.489 295.028 220.9C294.808 221.296 294.478 221.611 294.038 221.846C293.613 222.066 293.07 222.176 292.41 222.176ZM302.886 222.176C302.065 222.176 301.317 221.993 300.642 221.626C299.982 221.245 299.454 220.717 299.058 220.042C298.677 219.367 298.486 218.583 298.486 217.688C298.486 216.735 298.691 215.921 299.102 215.246C299.513 214.557 300.07 214.036 300.774 213.684C301.478 213.317 302.277 213.134 303.172 213.134C303.935 213.134 304.653 213.361 305.328 213.816C306.017 214.271 306.509 214.843 306.802 215.532L306.648 215.84L306.78 213.398H307.704V222H306.67V219.338L306.89 219.734C306.787 220.027 306.611 220.321 306.362 220.614C306.113 220.893 305.805 221.157 305.438 221.406C305.086 221.641 304.69 221.831 304.25 221.978C303.825 222.11 303.37 222.176 302.886 222.176ZM303.106 221.296C303.751 221.296 304.331 221.164 304.844 220.9C305.372 220.621 305.797 220.24 306.12 219.756C306.443 219.272 306.626 218.715 306.67 218.084V216.852C306.553 216.309 306.318 215.825 305.966 215.4C305.629 214.975 305.211 214.637 304.712 214.388C304.213 214.139 303.671 214.014 303.084 214.014C302.439 214.014 301.845 214.168 301.302 214.476C300.759 214.769 300.327 215.187 300.004 215.73C299.681 216.273 299.52 216.911 299.52 217.644C299.52 218.319 299.681 218.935 300.004 219.492C300.327 220.035 300.759 220.475 301.302 220.812C301.859 221.135 302.461 221.296 303.106 221.296ZM316.275 226.202C315.791 226.202 315.329 226.143 314.889 226.026C314.449 225.923 314.016 225.74 313.591 225.476C313.166 225.212 312.726 224.867 312.271 224.442L312.887 223.738C313.518 224.339 314.104 224.743 314.647 224.948C315.19 225.168 315.718 225.278 316.231 225.278C317.126 225.278 317.837 225.131 318.365 224.838C318.893 224.559 319.274 224.178 319.509 223.694C319.744 223.225 319.868 222.697 319.883 222.11L319.905 219.316L320.147 219.58C319.854 220.343 319.326 220.966 318.563 221.45C317.815 221.934 316.964 222.176 316.011 222.176C315.204 222.176 314.464 221.978 313.789 221.582C313.129 221.171 312.601 220.629 312.205 219.954C311.809 219.265 311.611 218.502 311.611 217.666C311.611 216.771 311.816 215.987 312.227 215.312C312.638 214.637 313.195 214.109 313.899 213.728C314.603 213.332 315.38 213.134 316.231 213.134C317.023 213.134 317.771 213.339 318.475 213.75C319.194 214.161 319.714 214.703 320.037 215.378L319.905 215.862L320.015 213.398H320.939V222.132C320.939 222.836 320.778 223.496 320.455 224.112C320.147 224.743 319.648 225.249 318.959 225.63C318.284 226.011 317.39 226.202 316.275 226.202ZM312.645 217.644C312.645 218.319 312.806 218.935 313.129 219.492C313.452 220.035 313.884 220.475 314.427 220.812C314.984 221.135 315.6 221.296 316.275 221.296C316.92 221.296 317.507 221.157 318.035 220.878C318.563 220.585 318.996 220.196 319.333 219.712C319.67 219.228 319.861 218.707 319.905 218.15V216.874C319.788 216.317 319.553 215.825 319.201 215.4C318.864 214.975 318.438 214.637 317.925 214.388C317.426 214.139 316.876 214.014 316.275 214.014C315.6 214.014 314.984 214.168 314.427 214.476C313.884 214.784 313.452 215.209 313.129 215.752C312.806 216.295 312.645 216.925 312.645 217.644ZM329.441 222.176C328.546 222.176 327.754 221.978 327.065 221.582C326.376 221.186 325.833 220.651 325.437 219.976C325.056 219.287 324.865 218.517 324.865 217.666C324.865 216.83 325.07 216.067 325.481 215.378C325.892 214.689 326.442 214.139 327.131 213.728C327.835 213.317 328.612 213.112 329.463 213.112C330.49 213.112 331.348 213.413 332.037 214.014C332.741 214.615 333.247 215.4 333.555 216.368L326.031 219.272L325.723 218.524L332.609 215.84L332.389 216.148C332.14 215.561 331.758 215.055 331.245 214.63C330.746 214.205 330.13 213.992 329.397 213.992C328.737 213.992 328.143 214.153 327.615 214.476C327.087 214.799 326.662 215.231 326.339 215.774C326.031 216.317 325.877 216.933 325.877 217.622C325.877 218.267 326.024 218.869 326.317 219.426C326.625 219.983 327.05 220.431 327.593 220.768C328.136 221.105 328.759 221.274 329.463 221.274C329.932 221.274 330.38 221.186 330.805 221.01C331.245 220.834 331.634 220.607 331.971 220.328L332.499 221.076C332.088 221.399 331.612 221.663 331.069 221.868C330.541 222.073 329.998 222.176 329.441 222.176Z" fill="black"/>
<path id="Vector" d="M77.5 11.5C84.3579 9.71166 96.2927 7.12818 108.214 5.01952M77.5 11.5C81.2156 24.4662 83.2124 37.656 85.375 50.963M77.5 11.5C97.6286 22.4469 115.73 33.8386 132.139 49.8398M108.214 5.01952L132.139 49.8398M108.214 5.01952C122.113 2.56093 135.807 1.34899 149.847 3.12322M85.375 50.963L146.935 64.6747M85.375 50.963C87.7192 65.3873 90.3558 79.0847 95.7203 92.8493M132.139 49.8398C137.116 54.6933 142.394 59.3989 146.935 64.6747M173.772 100.738C172.706 99.1784 171.623 97.6096 170.531 96.0424M173.772 100.738C211.01 99.7862 214.395 56.1456 199.581 31.8043M173.772 100.738C152.315 137.414 109.898 129.227 95.7203 92.8493M173.772 100.738C181.473 114.309 187.079 128.587 193 143M170.531 96.0424C169.393 94.4083 168.244 92.7764 167.095 91.1588M170.531 96.0424C168.992 75.28 178.173 41.1609 199.581 31.8043M199.581 31.8043C188.63 13.8096 170.53 5.73699 149.847 3.12322M95.7203 92.8493C119.184 91.1092 143.707 86.6659 167.095 91.1588M149.847 3.12322C145.649 26.329 144.788 51.8383 154.351 73.8784M146.935 64.6747C149.015 67.0909 151.551 70.2465 154.351 73.8784M154.351 73.8784C158.259 78.9483 162.682 84.9465 167.095 91.1588" stroke="#69B1A2" stroke-width="4"/>
<path id="aloft" d="M88.83 174.1C84.5767 174.1 80.69 173.183 77.17 171.35C73.7233 169.517 70.9733 166.84 68.92 163.32C66.94 159.727 65.95 155.363 65.95 150.23C65.95 145.17 67.0133 140.807 69.14 137.14C71.2667 133.4 74.09 130.54 77.61 128.56C81.2033 126.58 85.1267 125.59 89.38 125.59C93.6333 125.59 97.2267 126.58 100.16 128.56C103.093 130.467 105.33 132.74 106.87 135.38L106.21 137.14L107.2 127.46H116.66V173H106.43V161.12L107.53 163.76C107.237 164.493 106.577 165.447 105.55 166.62C104.597 167.72 103.277 168.857 101.59 170.03C99.9767 171.203 98.1067 172.193 95.98 173C93.8533 173.733 91.47 174.1 88.83 174.1ZM91.58 165.63C94.1467 165.63 96.4567 165.153 98.51 164.2C100.563 163.247 102.25 161.927 103.57 160.24C104.963 158.48 105.917 156.39 106.43 153.97V145.06C105.843 142.86 104.817 140.953 103.35 139.34C101.883 137.653 100.123 136.37 98.07 135.49C96.0167 134.537 93.7433 134.06 91.25 134.06C88.5367 134.06 86.0433 134.72 83.77 136.04C81.4967 137.36 79.6633 139.193 78.27 141.54C76.95 143.887 76.29 146.637 76.29 149.79C76.29 152.723 76.9867 155.4 78.38 157.82C79.7733 160.24 81.6433 162.147 83.99 163.54C86.3367 164.933 88.8667 165.63 91.58 165.63ZM128.313 87.86H138.543V173H128.313V87.86ZM146.233 149.79C146.233 145.243 147.296 141.137 149.423 137.47C151.623 133.803 154.629 130.907 158.443 128.78C162.256 126.653 166.583 125.59 171.423 125.59C176.409 125.59 180.773 126.653 184.513 128.78C188.253 130.907 191.149 133.803 193.203 137.47C195.256 141.137 196.283 145.243 196.283 149.79C196.283 154.337 195.256 158.48 193.203 162.22C191.149 165.887 188.216 168.783 184.403 170.91C180.663 173.037 176.299 174.1 171.313 174.1C166.473 174.1 162.146 173.11 158.333 171.13C154.593 169.077 151.623 166.253 149.423 162.66C147.296 158.993 146.233 154.703 146.233 149.79ZM156.463 149.9C156.463 152.833 157.123 155.51 158.443 157.93C159.763 160.277 161.523 162.147 163.723 163.54C165.996 164.933 168.489 165.63 171.203 165.63C174.063 165.63 176.593 164.933 178.793 163.54C181.066 162.147 182.826 160.277 184.073 157.93C185.319 155.51 185.943 152.833 185.943 149.9C185.943 146.967 185.319 144.327 184.073 141.98C182.826 139.56 181.066 137.653 178.793 136.26C176.593 134.793 174.063 134.06 171.203 134.06C168.416 134.06 165.886 134.793 163.613 136.26C161.413 137.727 159.653 139.67 158.333 142.09C157.086 144.437 156.463 147.04 156.463 149.9ZM207.824 173V136.59H200.014V127.46H207.824V108.21C207.824 101.61 209.291 96.55 212.224 93.03C215.231 89.51 219.631 87.75 225.424 87.75C226.964 87.75 228.651 87.97 230.484 88.41C232.391 88.85 234.041 89.5833 235.434 90.61L231.144 97.98C230.484 97.32 229.751 96.88 228.944 96.66C228.138 96.3667 227.331 96.22 226.524 96.22C223.811 96.22 221.721 97.1367 220.254 98.97C218.788 100.803 218.054 103.92 218.054 108.32V127.46H232.464V136.59H218.054V173H207.824ZM244.114 107.44H254.344V127.68H266.884V135.71H254.344V173H244.114V135.71H235.754V127.68H244.114V107.44Z" fill="black"/>
</g>
</svg>
