<svg width="259" height="181" viewBox="0 0 259 181" fill="none" xmlns="http://www.w3.org/2000/svg">
<path d="M2.8357 164.393C3.30248 164.393 3.76343 164.463 4.21854 164.603C4.68532 164.731 5.10543 164.941 5.47885 165.233C5.86395 165.513 6.17319 165.875 6.40658 166.318C6.63997 166.761 6.75667 167.292 6.75667 167.911C6.75667 168.378 6.68665 168.833 6.54662 169.276C6.40658 169.708 6.17903 170.099 5.86395 170.449C5.54887 170.799 5.14044 171.079 4.63865 171.289C4.13685 171.499 3.51837 171.604 2.78319 171.604H0.857712V176.821H0V164.393H2.8357ZM2.73067 170.782C3.34916 170.782 3.86262 170.694 4.27105 170.519C4.67949 170.344 5.0004 170.116 5.23379 169.836C5.46718 169.556 5.63056 169.253 5.72391 168.926C5.82894 168.588 5.88145 168.261 5.88145 167.946C5.88145 167.573 5.81144 167.222 5.6714 166.896C5.54304 166.569 5.35049 166.283 5.09376 166.038C4.83703 165.781 4.52778 165.583 4.16603 165.443C3.80427 165.291 3.40167 165.215 2.95823 165.215H0.857712V170.782H2.73067ZM4.51612 171.167L7.96447 176.821H6.96672L3.50086 171.184L4.51612 171.167Z" fill="black"/>
<path d="M14.1952 176.961C13.4833 176.961 12.8532 176.803 12.3047 176.488C11.7562 176.173 11.3245 175.747 11.0094 175.21C10.706 174.662 10.5543 174.049 10.5543 173.372C10.5543 172.707 10.7177 172.1 11.0444 171.552C11.3712 171.003 11.8088 170.566 12.3572 170.239C12.9174 169.912 13.5359 169.749 14.2127 169.749C15.0296 169.749 15.7122 169.988 16.2607 170.467C16.8208 170.945 17.2234 171.569 17.4685 172.34L11.482 174.65L11.237 174.055L16.7158 171.919L16.5408 172.164C16.3424 171.698 16.039 171.295 15.6305 170.957C15.2338 170.618 14.7437 170.449 14.1602 170.449C13.635 170.449 13.1624 170.577 12.7423 170.834C12.3222 171.091 11.9838 171.435 11.7271 171.867C11.482 172.299 11.3595 172.789 11.3595 173.337C11.3595 173.851 11.4762 174.329 11.7096 174.773C11.9546 175.216 12.293 175.572 12.7248 175.84C13.1566 176.109 13.6526 176.243 14.2127 176.243C14.5861 176.243 14.942 176.173 15.2805 176.033C15.6305 175.893 15.9398 175.712 16.2082 175.49L16.6283 176.085C16.3015 176.342 15.9223 176.552 15.4905 176.716C15.0704 176.879 14.6386 176.961 14.1952 176.961Z" fill="black"/>
<path d="M20.4146 163.517H21.2373V176.821H20.4146V163.517Z" fill="black"/>
<path d="M27.847 176.961C27.1936 176.961 26.5984 176.815 26.0616 176.523C25.5365 176.22 25.1164 175.8 24.8013 175.263C24.4979 174.726 24.3462 174.102 24.3462 173.39C24.3462 172.631 24.5096 171.984 24.8363 171.447C25.1631 170.898 25.6065 170.484 26.1666 170.204C26.7268 169.912 27.3628 169.766 28.0746 169.766C28.6814 169.766 29.2532 169.947 29.79 170.309C30.3385 170.671 30.7294 171.126 30.9628 171.674L30.8403 171.919L30.9453 169.976H31.6805V176.821H30.8578V174.703L31.0328 175.018C30.9512 175.251 30.8111 175.484 30.6127 175.718C30.4144 175.94 30.1693 176.15 29.8776 176.348C29.5975 176.535 29.2824 176.686 28.9323 176.803C28.5939 176.908 28.2321 176.961 27.847 176.961ZM28.0221 176.26C28.5356 176.26 28.9965 176.155 29.4049 175.945C29.825 175.724 30.1635 175.42 30.4202 175.035C30.6769 174.65 30.8228 174.207 30.8578 173.705V172.725C30.7644 172.293 30.5777 171.908 30.2977 171.569C30.0293 171.231 29.6967 170.963 29.2999 170.764C28.9031 170.566 28.4714 170.467 28.0046 170.467C27.4911 170.467 27.0185 170.589 26.5867 170.834C26.155 171.068 25.8107 171.4 25.554 171.832C25.2973 172.264 25.1689 172.771 25.1689 173.355C25.1689 173.892 25.2973 174.382 25.554 174.825C25.8107 175.257 26.155 175.607 26.5867 175.875C27.0302 176.132 27.5086 176.26 28.0221 176.26Z" fill="black"/>
<path d="M37.4673 172.935L39.4978 169.976H40.3555L37.8174 173.547L37.4673 172.935ZM40.4956 176.821H39.5153L34.3866 169.976H35.4193L40.4956 176.821ZM37.4498 173.88L35.3493 176.821H34.4741L36.9947 173.337L37.4498 173.88Z" fill="black"/>
<path d="M46.0492 176.961C45.3957 176.961 44.8006 176.815 44.2638 176.523C43.7386 176.22 43.3185 175.8 43.0035 175.263C42.7001 174.726 42.5484 174.102 42.5484 173.39C42.5484 172.631 42.7117 171.984 43.0385 171.447C43.3652 170.898 43.8087 170.484 44.3688 170.204C44.9289 169.912 45.5649 169.766 46.2768 169.766C46.8836 169.766 47.4554 169.947 47.9922 170.309C48.5407 170.671 48.9316 171.126 49.165 171.674L49.0425 171.919L49.1475 169.976H49.8827V176.821H49.06V174.703L49.235 175.018C49.1533 175.251 49.0133 175.484 48.8149 175.718C48.6165 175.94 48.3715 176.15 48.0797 176.348C47.7997 176.535 47.4846 176.686 47.1345 176.803C46.7961 176.908 46.4343 176.961 46.0492 176.961ZM46.2243 176.26C46.7377 176.26 47.1987 176.155 47.6071 175.945C48.0272 175.724 48.3656 175.42 48.6224 175.035C48.8791 174.65 49.025 174.207 49.06 173.705V172.725C48.9666 172.293 48.7799 171.908 48.4998 171.569C48.2314 171.231 47.8988 170.963 47.5021 170.764C47.1053 170.566 46.6735 170.467 46.2068 170.467C45.6933 170.467 45.2207 170.589 44.7889 170.834C44.3571 171.068 44.0129 171.4 43.7562 171.832C43.4994 172.264 43.3711 172.771 43.3711 173.355C43.3711 173.892 43.4994 174.382 43.7562 174.825C44.0129 175.257 44.3571 175.607 44.7889 175.875C45.2323 176.132 45.7108 176.26 46.2243 176.26Z" fill="black"/>
<path d="M54.3392 166.966H55.1794V170.064H57.2974V170.729H55.1794V176.821H54.3392V170.729H52.8863V170.064H54.3392V166.966Z" fill="black"/>
<path d="M60.014 169.976H60.8367V176.821H60.014V169.976ZM59.8389 167.456C59.8389 167.292 59.9031 167.158 60.0315 167.053C60.1598 166.937 60.2999 166.878 60.4516 166.878C60.615 166.878 60.755 166.937 60.8717 167.053C60.9884 167.158 61.0467 167.292 61.0467 167.456C61.0467 167.631 60.9884 167.777 60.8717 167.893C60.755 167.998 60.615 168.051 60.4516 168.051C60.2999 168.051 60.1598 167.993 60.0315 167.876C59.9031 167.759 59.8389 167.619 59.8389 167.456Z" fill="black"/>
<path d="M63.9456 173.355C63.9456 172.69 64.1032 172.083 64.4182 171.534C64.745 170.986 65.1826 170.554 65.731 170.239C66.2912 169.912 66.9155 169.749 67.604 169.749C68.3042 169.749 68.9285 169.912 69.477 170.239C70.0254 170.554 70.4572 170.986 70.7723 171.534C71.0874 172.083 71.2449 172.69 71.2449 173.355C71.2449 174.02 71.0874 174.627 70.7723 175.175C70.4572 175.724 70.0196 176.161 69.4595 176.488C68.911 176.803 68.2925 176.961 67.604 176.961C66.9038 176.961 66.2795 176.809 65.731 176.506C65.1826 176.19 64.745 175.765 64.4182 175.228C64.1032 174.679 63.9456 174.055 63.9456 173.355ZM64.7683 173.372C64.7683 173.909 64.8908 174.399 65.1359 174.843C65.3926 175.274 65.731 175.619 66.1512 175.875C66.5829 176.132 67.0614 176.26 67.5865 176.26C68.1116 176.26 68.5843 176.132 69.0044 175.875C69.4361 175.619 69.7746 175.274 70.0196 174.843C70.2763 174.399 70.4047 173.909 70.4047 173.372C70.4047 172.835 70.2763 172.351 70.0196 171.919C69.7746 171.476 69.4361 171.126 69.0044 170.869C68.5843 170.601 68.1116 170.467 67.5865 170.467C67.0497 170.467 66.5654 170.607 66.1337 170.887C65.7135 171.155 65.381 171.511 65.1359 171.954C64.8908 172.398 64.7683 172.87 64.7683 173.372Z" fill="black"/>
<path d="M75.0706 169.976L75.1581 172.129L75.0531 171.709C75.2514 171.114 75.6249 170.647 76.1733 170.309C76.7335 169.959 77.352 169.784 78.0288 169.784C78.6706 169.784 79.1899 169.976 79.5867 170.362C79.9834 170.735 80.1877 171.225 80.1993 171.832V176.821H79.3591V172.059C79.3475 171.616 79.2074 171.248 78.939 170.957C78.6706 170.665 78.2797 170.513 77.7662 170.502C77.3111 170.502 76.8852 170.612 76.4884 170.834C76.0917 171.056 75.7707 171.365 75.5257 171.762C75.2923 172.159 75.1756 172.62 75.1756 173.145V176.821H74.3529V169.976H75.0706Z" fill="black"/>
<path d="M99.4779 176.821C99.4429 176.821 99.367 176.821 99.2503 176.821C99.1453 176.821 99.0344 176.821 98.9177 176.821C98.801 176.821 98.696 176.821 98.6027 176.821C98.521 176.821 98.4801 176.821 98.4801 176.821L92.021 168.401C91.9277 168.238 91.8227 168.057 91.706 167.858C91.6009 167.648 91.5134 167.427 91.4434 167.193C91.3734 166.948 91.3384 166.686 91.3384 166.406C91.3384 165.88 91.4609 165.414 91.706 165.005C91.951 164.585 92.2894 164.258 92.7212 164.025C93.1647 163.78 93.6664 163.657 94.2266 163.657C94.775 163.657 95.2768 163.762 95.7319 163.972C96.1987 164.171 96.5897 164.398 96.9047 164.655L96.4846 165.233C96.1346 164.976 95.7786 164.772 95.4169 164.62C95.0668 164.468 94.7109 164.393 94.3491 164.393C93.7306 164.393 93.2172 164.585 92.8087 164.97C92.412 165.344 92.2136 165.822 92.2136 166.406C92.2136 166.674 92.2544 166.931 92.3361 167.176C92.4295 167.421 92.517 167.619 92.5987 167.771C92.692 167.923 92.7446 168.01 92.7562 168.033L99.4779 176.821ZM93.7365 170.502C93.363 170.502 92.9838 170.577 92.5987 170.729C92.2253 170.869 91.881 171.068 91.5659 171.324C91.2625 171.581 91.0174 171.89 90.8307 172.252C90.644 172.602 90.5507 172.993 90.5507 173.425C90.5507 173.973 90.6965 174.458 90.9883 174.878C91.28 175.286 91.671 175.607 92.1611 175.84C92.6512 176.074 93.188 176.19 93.7715 176.19C94.2733 176.19 94.7342 176.109 95.1543 175.945C95.5861 175.782 95.9595 175.566 96.2746 175.298C96.5897 175.029 96.8172 174.738 96.9573 174.423L97.4999 174.983C97.1965 175.543 96.7064 176.015 96.0295 176.401C95.3527 176.774 94.5708 176.961 93.684 176.961C92.9021 176.961 92.2077 176.803 91.6009 176.488C90.9941 176.173 90.5157 175.753 90.1656 175.228C89.8155 174.691 89.6404 174.096 89.6404 173.442C89.6404 172.929 89.7513 172.456 89.973 172.024C90.2064 171.581 90.5157 171.196 90.9008 170.869C91.2859 170.542 91.7176 170.286 92.1961 170.099C92.6745 169.912 93.1705 169.813 93.684 169.801L93.7365 170.502ZM98.6902 169.801H99.5304L97.5874 174.86L96.9748 174.388L98.6902 169.801Z" fill="black"/>
<path d="M112.406 164.393C112.873 164.393 113.334 164.463 113.789 164.603C114.256 164.731 114.676 164.941 115.049 165.233C115.434 165.513 115.744 165.875 115.977 166.318C116.21 166.761 116.327 167.292 116.327 167.911C116.327 168.378 116.257 168.833 116.117 169.276C115.977 169.708 115.75 170.099 115.434 170.449C115.119 170.799 114.711 171.079 114.209 171.289C113.707 171.499 113.089 171.604 112.354 171.604H110.428V176.821H109.57V164.393H112.406ZM112.301 170.782C112.92 170.782 113.433 170.694 113.842 170.519C114.25 170.344 114.571 170.116 114.804 169.836C115.038 169.556 115.201 169.253 115.294 168.926C115.399 168.588 115.452 168.261 115.452 167.946C115.452 167.573 115.382 167.222 115.242 166.896C115.114 166.569 114.921 166.283 114.664 166.038C114.408 165.781 114.098 165.583 113.737 165.443C113.375 165.291 112.972 165.215 112.529 165.215H110.428V170.782H112.301ZM114.087 171.167L117.535 176.821H116.537L113.071 171.184L114.087 171.167Z" fill="black"/>
<path d="M123.766 176.961C123.054 176.961 122.424 176.803 121.875 176.488C121.327 176.173 120.895 175.747 120.58 175.21C120.276 174.662 120.125 174.049 120.125 173.372C120.125 172.707 120.288 172.1 120.615 171.552C120.942 171.003 121.379 170.566 121.928 170.239C122.488 169.912 123.106 169.749 123.783 169.749C124.6 169.749 125.283 169.988 125.831 170.467C126.391 170.945 126.794 171.569 127.039 172.34L121.052 174.65L120.807 174.055L126.286 171.919L126.111 172.164C125.913 171.698 125.609 171.295 125.201 170.957C124.804 170.618 124.314 170.449 123.731 170.449C123.206 170.449 122.733 170.577 122.313 170.834C121.893 171.091 121.554 171.435 121.298 171.867C121.052 172.299 120.93 172.789 120.93 173.337C120.93 173.851 121.047 174.329 121.28 174.773C121.525 175.216 121.864 175.572 122.295 175.84C122.727 176.109 123.223 176.243 123.783 176.243C124.157 176.243 124.513 176.173 124.851 176.033C125.201 175.893 125.51 175.712 125.779 175.49L126.199 176.085C125.872 176.342 125.493 176.552 125.061 176.716C124.641 176.879 124.209 176.961 123.766 176.961Z" fill="black"/>
<path d="M130.703 169.976L130.79 171.884L130.668 171.709C130.901 171.114 131.286 170.647 131.823 170.309C132.371 169.959 132.967 169.784 133.608 169.784C133.994 169.784 134.338 169.86 134.641 170.011C134.956 170.151 135.207 170.35 135.394 170.607C135.592 170.852 135.709 171.138 135.744 171.464L135.639 171.569C135.884 170.986 136.269 170.542 136.794 170.239C137.319 169.936 137.885 169.784 138.492 169.784C139.146 169.784 139.665 169.976 140.05 170.362C140.435 170.735 140.633 171.225 140.645 171.832V176.821H139.822V172.007C139.811 171.598 139.682 171.254 139.437 170.974C139.192 170.682 138.819 170.525 138.317 170.502C137.862 170.502 137.442 170.618 137.057 170.852C136.672 171.085 136.357 171.394 136.112 171.779C135.878 172.164 135.75 172.596 135.726 173.075V176.821H134.904V172.007C134.892 171.598 134.758 171.254 134.501 170.974C134.256 170.682 133.883 170.525 133.381 170.502C132.914 170.502 132.482 170.618 132.086 170.852C131.7 171.085 131.391 171.406 131.158 171.814C130.924 172.211 130.808 172.655 130.808 173.145V176.821H129.985V169.976H130.703Z" fill="black"/>
<path d="M147.404 176.961C146.692 176.961 146.062 176.803 145.513 176.488C144.965 176.173 144.533 175.747 144.218 175.21C143.915 174.662 143.763 174.049 143.763 173.372C143.763 172.707 143.926 172.1 144.253 171.552C144.58 171.003 145.017 170.566 145.566 170.239C146.126 169.912 146.744 169.749 147.421 169.749C148.238 169.749 148.921 169.988 149.469 170.467C150.029 170.945 150.432 171.569 150.677 172.34L144.691 174.65L144.446 174.055L149.924 171.919L149.749 172.164C149.551 171.698 149.248 171.295 148.839 170.957C148.442 170.618 147.952 170.449 147.369 170.449C146.844 170.449 146.371 170.577 145.951 170.834C145.531 171.091 145.192 171.435 144.936 171.867C144.691 172.299 144.568 172.789 144.568 173.337C144.568 173.851 144.685 174.329 144.918 174.773C145.163 175.216 145.502 175.572 145.933 175.84C146.365 176.109 146.861 176.243 147.421 176.243C147.795 176.243 148.151 176.173 148.489 176.033C148.839 175.893 149.148 175.712 149.417 175.49L149.837 176.085C149.51 176.342 149.131 176.552 148.699 176.716C148.279 176.879 147.847 176.961 147.404 176.961Z" fill="black"/>
<path d="M156.424 176.961C155.782 176.961 155.199 176.809 154.673 176.506C154.148 176.19 153.728 175.759 153.413 175.21C153.11 174.662 152.958 174.043 152.958 173.355C152.958 172.62 153.115 171.984 153.431 171.447C153.746 170.91 154.172 170.496 154.708 170.204C155.257 169.912 155.858 169.766 156.511 169.766C157.165 169.766 157.783 169.936 158.367 170.274C158.962 170.612 159.394 171.056 159.662 171.604L159.522 171.989V163.517H160.345V176.821H159.505V174.72L159.68 175.105C159.388 175.654 158.95 176.103 158.367 176.453C157.783 176.791 157.136 176.961 156.424 176.961ZM156.634 176.243C157.159 176.243 157.632 176.132 158.052 175.91C158.472 175.677 158.81 175.368 159.067 174.983C159.324 174.586 159.47 174.142 159.505 173.652V172.777C159.423 172.334 159.242 171.937 158.962 171.587C158.682 171.237 158.343 170.963 157.947 170.764C157.55 170.554 157.112 170.449 156.634 170.449C156.109 170.449 155.63 170.572 155.199 170.817C154.767 171.062 154.422 171.4 154.166 171.832C153.909 172.264 153.781 172.765 153.781 173.337C153.781 173.874 153.909 174.364 154.166 174.808C154.422 175.239 154.767 175.589 155.199 175.858C155.642 176.115 156.12 176.243 156.634 176.243Z" fill="black"/>
<path d="M164.117 169.976H164.94V176.821H164.117V169.976ZM163.942 167.456C163.942 167.292 164.007 167.158 164.135 167.053C164.263 166.937 164.403 166.878 164.555 166.878C164.718 166.878 164.858 166.937 164.975 167.053C165.092 167.158 165.15 167.292 165.15 167.456C165.15 167.631 165.092 167.777 164.975 167.893C164.858 167.998 164.718 168.051 164.555 168.051C164.403 168.051 164.263 167.993 164.135 167.876C164.007 167.759 163.942 167.619 163.942 167.456Z" fill="black"/>
<path d="M171.55 176.961C170.896 176.961 170.301 176.815 169.764 176.523C169.239 176.22 168.819 175.8 168.504 175.263C168.201 174.726 168.049 174.102 168.049 173.39C168.049 172.631 168.212 171.984 168.539 171.447C168.866 170.898 169.309 170.484 169.869 170.204C170.43 169.912 171.066 169.766 171.777 169.766C172.384 169.766 172.956 169.947 173.493 170.309C174.041 170.671 174.432 171.126 174.666 171.674L174.543 171.919L174.648 169.976H175.383V176.821H174.561V174.703L174.736 175.018C174.654 175.251 174.514 175.484 174.316 175.718C174.117 175.94 173.872 176.15 173.58 176.348C173.3 176.535 172.985 176.686 172.635 176.803C172.297 176.908 171.935 176.961 171.55 176.961ZM171.725 176.26C172.238 176.26 172.699 176.155 173.108 175.945C173.528 175.724 173.866 175.42 174.123 175.035C174.38 174.65 174.526 174.207 174.561 173.705V172.725C174.467 172.293 174.281 171.908 174 171.569C173.732 171.231 173.399 170.963 173.003 170.764C172.606 170.566 172.174 170.467 171.707 170.467C171.194 170.467 170.721 170.589 170.29 170.834C169.858 171.068 169.514 171.4 169.257 171.832C169 172.264 168.872 172.771 168.872 173.355C168.872 173.892 169 174.382 169.257 174.825C169.514 175.257 169.858 175.607 170.29 175.875C170.733 176.132 171.211 176.26 171.725 176.26Z" fill="black"/>
<path d="M179.157 163.517H179.98V176.821H179.157V163.517Z" fill="black"/>
<path d="M190.207 176.821V164.112H190.224L196.351 172.812L195.983 172.76L202.092 164.112H202.11V176.821H201.269V166.09L201.339 166.511L196.158 173.81H196.123L190.907 166.511L191.047 166.125V176.821H190.207Z" fill="black"/>
<path d="M209.151 176.961C208.497 176.961 207.902 176.815 207.365 176.523C206.84 176.22 206.42 175.8 206.105 175.263C205.802 174.726 205.65 174.102 205.65 173.39C205.65 172.631 205.813 171.984 206.14 171.447C206.467 170.898 206.91 170.484 207.47 170.204C208.031 169.912 208.666 169.766 209.378 169.766C209.985 169.766 210.557 169.947 211.094 170.309C211.642 170.671 212.033 171.126 212.267 171.674L212.144 171.919L212.249 169.976H212.984V176.821H212.162V174.703L212.337 175.018C212.255 175.251 212.115 175.484 211.916 175.718C211.718 175.94 211.473 176.15 211.181 176.348C210.901 176.535 210.586 176.686 210.236 176.803C209.898 176.908 209.536 176.961 209.151 176.961ZM209.326 176.26C209.839 176.26 210.3 176.155 210.709 175.945C211.129 175.724 211.467 175.42 211.724 175.035C211.981 174.65 212.127 174.207 212.162 173.705V172.725C212.068 172.293 211.881 171.908 211.601 171.569C211.333 171.231 211 170.963 210.604 170.764C210.207 170.566 209.775 170.467 209.308 170.467C208.795 170.467 208.322 170.589 207.89 170.834C207.459 171.068 207.114 171.4 206.858 171.832C206.601 172.264 206.473 172.771 206.473 173.355C206.473 173.892 206.601 174.382 206.858 174.825C207.114 175.257 207.459 175.607 207.89 175.875C208.334 176.132 208.812 176.26 209.326 176.26Z" fill="black"/>
<path d="M218.368 176.961C217.972 176.961 217.557 176.891 217.126 176.751C216.694 176.599 216.344 176.36 216.075 176.033L216.46 175.49C216.694 175.735 216.968 175.934 217.283 176.085C217.61 176.225 217.954 176.295 218.316 176.295C218.584 176.295 218.835 176.26 219.069 176.19C219.314 176.109 219.512 175.975 219.664 175.788C219.815 175.601 219.891 175.35 219.891 175.035C219.891 174.708 219.798 174.458 219.611 174.282C219.436 174.107 219.209 173.967 218.929 173.862C218.66 173.746 218.374 173.641 218.071 173.547C217.569 173.384 217.155 173.162 216.828 172.882C216.513 172.602 216.355 172.205 216.355 171.692C216.355 171.318 216.443 170.992 216.618 170.712C216.805 170.432 217.056 170.216 217.371 170.064C217.686 169.901 218.042 169.819 218.438 169.819C218.8 169.819 219.156 169.877 219.506 169.994C219.868 170.111 220.195 170.309 220.486 170.589L220.119 171.167C219.932 170.91 219.681 170.735 219.366 170.642C219.063 170.548 218.794 170.496 218.561 170.484C218.363 170.484 218.153 170.525 217.931 170.607C217.721 170.688 217.54 170.811 217.388 170.974C217.248 171.126 217.178 171.33 217.178 171.587C217.178 171.855 217.254 172.077 217.406 172.252C217.557 172.415 217.75 172.55 217.983 172.655C218.228 172.76 218.479 172.859 218.736 172.952C219.074 173.057 219.39 173.186 219.681 173.337C219.985 173.477 220.23 173.67 220.416 173.915C220.615 174.148 220.714 174.463 220.714 174.86C220.714 175.257 220.627 175.619 220.451 175.945C220.276 176.26 220.014 176.511 219.664 176.698C219.325 176.873 218.894 176.961 218.368 176.961Z" fill="black"/>
<path d="M225.478 176.961C225.081 176.961 224.667 176.891 224.235 176.751C223.803 176.599 223.453 176.36 223.185 176.033L223.57 175.49C223.803 175.735 224.078 175.934 224.393 176.085C224.72 176.225 225.064 176.295 225.426 176.295C225.694 176.295 225.945 176.26 226.178 176.19C226.423 176.109 226.622 175.975 226.773 175.788C226.925 175.601 227.001 175.35 227.001 175.035C227.001 174.708 226.908 174.458 226.721 174.282C226.546 174.107 226.318 173.967 226.038 173.862C225.77 173.746 225.484 173.641 225.181 173.547C224.679 173.384 224.264 173.162 223.938 172.882C223.623 172.602 223.465 172.205 223.465 171.692C223.465 171.318 223.553 170.992 223.728 170.712C223.914 170.432 224.165 170.216 224.48 170.064C224.795 169.901 225.151 169.819 225.548 169.819C225.91 169.819 226.266 169.877 226.616 169.994C226.978 170.111 227.304 170.309 227.596 170.589L227.229 171.167C227.042 170.91 226.791 170.735 226.476 170.642C226.172 170.548 225.904 170.496 225.671 170.484C225.472 170.484 225.262 170.525 225.04 170.607C224.83 170.688 224.65 170.811 224.498 170.974C224.358 171.126 224.288 171.33 224.288 171.587C224.288 171.855 224.364 172.077 224.515 172.252C224.667 172.415 224.86 172.55 225.093 172.655C225.338 172.76 225.589 172.859 225.846 172.952C226.184 173.057 226.499 173.186 226.791 173.337C227.094 173.477 227.339 173.67 227.526 173.915C227.724 174.148 227.824 174.463 227.824 174.86C227.824 175.257 227.736 175.619 227.561 175.945C227.386 176.26 227.123 176.511 226.773 176.698C226.435 176.873 226.003 176.961 225.478 176.961Z" fill="black"/>
<path d="M233.813 176.961C233.16 176.961 232.564 176.815 232.028 176.523C231.502 176.22 231.082 175.8 230.767 175.263C230.464 174.726 230.312 174.102 230.312 173.39C230.312 172.631 230.476 171.984 230.802 171.447C231.129 170.898 231.572 170.484 232.133 170.204C232.693 169.912 233.329 169.766 234.041 169.766C234.647 169.766 235.219 169.947 235.756 170.309C236.304 170.671 236.695 171.126 236.929 171.674L236.806 171.919L236.911 169.976H237.646V176.821H236.824V174.703L236.999 175.018C236.917 175.251 236.777 175.484 236.579 175.718C236.38 175.94 236.135 176.15 235.844 176.348C235.563 176.535 235.248 176.686 234.898 176.803C234.56 176.908 234.198 176.961 233.813 176.961ZM233.988 176.26C234.502 176.26 234.962 176.155 235.371 175.945C235.791 175.724 236.129 175.42 236.386 175.035C236.643 174.65 236.789 174.207 236.824 173.705V172.725C236.73 172.293 236.544 171.908 236.264 171.569C235.995 171.231 235.663 170.963 235.266 170.764C234.869 170.566 234.437 170.467 233.971 170.467C233.457 170.467 232.984 170.589 232.553 170.834C232.121 171.068 231.777 171.4 231.52 171.832C231.263 172.264 231.135 172.771 231.135 173.355C231.135 173.892 231.263 174.382 231.52 174.825C231.777 175.257 232.121 175.607 232.553 175.875C232.996 176.132 233.475 176.26 233.988 176.26Z" fill="black"/>
<path d="M244.466 180.164C244.081 180.164 243.713 180.117 243.363 180.024C243.013 179.942 242.669 179.796 242.33 179.586C241.992 179.376 241.642 179.102 241.28 178.764L241.77 178.203C242.272 178.682 242.739 179.003 243.171 179.166C243.602 179.341 244.023 179.429 244.431 179.429C245.143 179.429 245.709 179.312 246.129 179.079C246.549 178.857 246.852 178.554 247.039 178.168C247.226 177.795 247.325 177.375 247.337 176.908L247.354 174.685L247.547 174.895C247.313 175.502 246.893 175.998 246.286 176.383C245.691 176.768 245.014 176.961 244.256 176.961C243.614 176.961 243.025 176.803 242.488 176.488C241.963 176.161 241.543 175.73 241.228 175.193C240.913 174.644 240.755 174.037 240.755 173.372C240.755 172.66 240.918 172.036 241.245 171.499C241.572 170.963 242.015 170.542 242.576 170.239C243.136 169.924 243.754 169.766 244.431 169.766C245.061 169.766 245.656 169.93 246.216 170.256C246.788 170.583 247.203 171.015 247.459 171.552L247.354 171.937L247.442 169.976H248.177V176.926C248.177 177.486 248.049 178.011 247.792 178.501C247.547 179.003 247.15 179.405 246.602 179.709C246.065 180.012 245.353 180.164 244.466 180.164ZM241.578 173.355C241.578 173.892 241.706 174.382 241.963 174.825C242.22 175.257 242.564 175.607 242.996 175.875C243.439 176.132 243.929 176.26 244.466 176.26C244.979 176.26 245.446 176.15 245.866 175.928C246.286 175.695 246.631 175.385 246.899 175C247.168 174.615 247.319 174.201 247.354 173.757V172.742C247.261 172.299 247.074 171.908 246.794 171.569C246.526 171.231 246.187 170.963 245.779 170.764C245.382 170.566 244.944 170.467 244.466 170.467C243.929 170.467 243.439 170.589 242.996 170.834C242.564 171.079 242.22 171.418 241.963 171.849C241.706 172.281 241.578 172.783 241.578 173.355Z" fill="black"/>
<path d="M254.942 176.961C254.23 176.961 253.6 176.803 253.051 176.488C252.503 176.173 252.071 175.747 251.756 175.21C251.452 174.662 251.301 174.049 251.301 173.372C251.301 172.707 251.464 172.1 251.791 171.552C252.118 171.003 252.555 170.566 253.104 170.239C253.664 169.912 254.282 169.749 254.959 169.749C255.776 169.749 256.459 169.988 257.007 170.467C257.567 170.945 257.97 171.569 258.215 172.34L252.228 174.65L251.983 174.055L257.462 171.919L257.287 172.164C257.089 171.698 256.785 171.295 256.377 170.957C255.98 170.618 255.49 170.449 254.907 170.449C254.381 170.449 253.909 170.577 253.489 170.834C253.069 171.091 252.73 171.435 252.473 171.867C252.228 172.299 252.106 172.789 252.106 173.337C252.106 173.851 252.223 174.329 252.456 174.773C252.701 175.216 253.039 175.572 253.471 175.84C253.903 176.109 254.399 176.243 254.959 176.243C255.332 176.243 255.688 176.173 256.027 176.033C256.377 175.893 256.686 175.712 256.955 175.49L257.375 176.085C257.048 176.342 256.669 176.552 256.237 176.716C255.817 176.879 255.385 176.961 254.942 176.961Z" fill="black"/>
<path d="M58.0938 9.33607C63.5502 7.91318 73.0462 5.85763 82.5313 4.17987M58.0938 9.33607C61.05 19.6526 62.6388 30.1472 64.3595 40.7349M58.0938 9.33607C74.1091 18.046 88.5112 27.1098 101.567 39.8412M82.5313 4.17987L101.567 39.8412M82.5313 4.17987C93.5904 2.22369 104.486 1.25941 115.657 2.67108M64.3595 40.7349L113.34 51.6445M64.3595 40.7349C66.2247 52.2115 68.3225 63.1099 72.5908 74.0617M101.567 39.8412C105.527 43.7029 109.727 47.4469 113.34 51.6445M134.693 80.3385C133.845 79.0975 132.983 77.8493 132.114 76.6023M134.693 80.3385C164.321 79.5811 167.014 44.8584 155.227 25.4912M134.693 80.3385C117.62 109.519 83.8713 103.006 72.5908 74.0617M134.693 80.3385C140.82 91.1361 145.28 102.497 149.991 113.964M132.114 76.6023C131.208 75.3021 130.295 74.0037 129.38 72.7167M132.114 76.6023C130.889 60.0827 138.194 32.9358 155.227 25.4912M155.227 25.4912C146.514 11.1737 132.113 4.75073 115.657 2.67108M72.5908 74.0617C91.2599 72.6772 110.771 69.1419 129.38 72.7167M115.657 2.67108C112.316 21.1348 111.632 41.4313 119.24 58.9675M113.34 51.6445C114.995 53.567 117.012 56.0778 119.24 58.9675M119.24 58.9675C122.35 63.0014 125.869 67.7738 129.38 72.7167" stroke="#69B1A2" stroke-width="4"/>
<path d="M67.1083 138.709C63.7241 138.709 60.6317 137.98 57.831 136.521C55.0887 135.062 52.9006 132.932 51.2669 130.132C49.6915 127.273 48.9038 123.801 48.9038 119.717C48.9038 115.691 49.7499 112.219 51.4419 109.302C53.134 106.326 55.3804 104.05 58.1811 102.475C61.0401 100.9 64.1617 100.112 67.5459 100.112C70.9301 100.112 73.7891 100.9 76.123 102.475C78.4569 103.992 80.2365 105.801 81.4618 107.901L80.9367 109.302L81.7244 101.6H89.2513V137.834H81.1118V128.381L81.987 130.482C81.7536 131.065 81.2285 131.824 80.4116 132.757C79.6531 133.633 78.6028 134.537 77.2608 135.471C75.9772 136.404 74.4893 137.192 72.7972 137.834C71.1051 138.417 69.2088 138.709 67.1083 138.709ZM69.2963 131.97C71.3385 131.97 73.1765 131.59 74.8102 130.832C76.4439 130.073 77.7859 129.023 78.8362 127.681C79.9448 126.281 80.7033 124.618 81.1118 122.692V115.603C80.645 113.853 79.8281 112.336 78.6612 111.052C77.4942 109.71 76.0939 108.689 74.4601 107.989C72.8264 107.23 71.0176 106.851 69.0338 106.851C66.8749 106.851 64.8911 107.376 63.0823 108.426C61.2735 109.477 59.8148 110.935 58.7062 112.803C57.656 114.67 57.1308 116.858 57.1308 119.367C57.1308 121.701 57.6851 123.83 58.7938 125.756C59.9024 127.681 61.3902 129.198 63.2574 130.307C65.1245 131.415 67.1375 131.97 69.2963 131.97Z" fill="black"/>
<path d="M98.5231 70.092H106.663V137.834H98.5231V70.092Z" fill="black"/>
<path d="M112.781 119.367C112.781 115.749 113.627 112.482 115.319 109.564C117.069 106.647 119.462 104.342 122.496 102.65C125.53 100.958 128.972 100.112 132.823 100.112C136.791 100.112 140.263 100.958 143.238 102.65C146.214 104.342 148.519 106.647 150.153 109.564C151.786 112.482 152.603 115.749 152.603 119.367C152.603 122.984 151.786 126.281 150.153 129.257C148.519 132.174 146.185 134.479 143.151 136.171C140.175 137.863 136.703 138.709 132.736 138.709C128.885 138.709 125.442 137.921 122.408 136.346C119.433 134.712 117.069 132.466 115.319 129.607C113.627 126.689 112.781 123.276 112.781 119.367ZM120.92 119.454C120.92 121.788 121.446 123.918 122.496 125.843C123.546 127.71 124.946 129.198 126.697 130.307C128.506 131.415 130.489 131.97 132.648 131.97C134.924 131.97 136.937 131.415 138.687 130.307C140.496 129.198 141.896 127.71 142.888 125.843C143.88 123.918 144.376 121.788 144.376 119.454C144.376 117.12 143.88 115.02 142.888 113.153C141.896 111.227 140.496 109.71 138.687 108.601C136.937 107.435 134.924 106.851 132.648 106.851C130.431 106.851 128.418 107.435 126.609 108.601C124.859 109.768 123.459 111.315 122.408 113.24C121.416 115.107 120.92 117.179 120.92 119.454Z" fill="black"/>
<path d="M161.786 137.834V108.864H155.572V101.6H161.786V86.2835C161.786 81.0322 162.953 77.0062 165.287 74.2055C167.679 71.4048 171.18 70.0045 175.79 70.0045C177.015 70.0045 178.357 70.1795 179.816 70.5296C181.333 70.8797 182.645 71.4632 183.754 72.28L180.341 78.144C179.816 77.6188 179.232 77.2688 178.59 77.0937C177.949 76.8603 177.307 76.7436 176.665 76.7436C174.506 76.7436 172.843 77.473 171.676 78.9317C170.509 80.3904 169.926 82.8701 169.926 86.371V101.6H181.391V108.864H169.926V137.834H161.786Z" fill="black"/>
<path d="M190.66 85.6708H198.8V101.775H208.777V108.164H198.8V137.834H190.66V108.164H184.008V101.775H190.66V85.6708Z" fill="black"/>
</svg>
