<?xml version="1.0" encoding="utf-8"?>
<svg version="1.1" id="Layer_1" x="0px" y="0px" viewBox="0 0 64 64" style="enable-background:new 0 0 517.2 144.3;" xmlns="http://www.w3.org/2000/svg">
  <defs/>
  <path d="M 53.306 0 L 10.694 0 C 4.788 0 0 4.788 0 10.694 L 0 53.306 C 0 59.212 4.788 64 10.694 64 L 53.306 64 C 59.212 64 64 59.212 64 53.306 L 64 10.694 C 64 4.788 59.212 0 53.306 0 Z M 52.366 48.988 C 52.366 50.854 50.854 52.366 48.988 52.366 L 15.012 52.366 C 13.146 52.366 11.634 50.854 11.634 48.988 L 11.634 15.012 C 11.634 13.146 13.146 11.634 15.012 11.634 L 48.988 11.634 C 50.854 11.634 52.366 13.146 52.366 15.012 L 52.366 48.988 Z M 25.211 40.687 C 24.137 40.687 23.274 39.818 23.274 38.744 L 23.274 25.179 C 23.274 24.104 24.137 23.229 25.211 23.229 L 38.795 23.229 C 39.863 23.229 40.732 24.098 40.732 25.179 L 40.732 38.738 C 40.732 39.812 39.863 40.68 38.795 40.68 L 25.211 40.68 L 25.211 40.687 Z" fill="black" class="svelte-d866tb" style=""/>
</svg>